mtllib four_gates_waystone.mtl
usemtl four_gates_waystone
v 0.70000 0.00000 0.00000
v 0.43644 0.54728 0.00000
v 0.28057 0.35182 3.00000
v 0.45000 0.00000 3.00000
v 0.43644 0.54728 0.00000
v -0.15576 0.68245 0.00000
v -0.10013 0.43872 3.00000
v 0.28057 0.35182 3.00000
v -0.15576 0.68245 0.00000
v -0.63068 0.30372 0.00000
v -0.40544 0.19525 3.00000
v -0.10013 0.43872 3.00000
v -0.63068 0.30372 0.00000
v -0.63068 -0.30372 0.00000
v -0.40544 -0.19525 3.00000
v -0.40544 0.19525 3.00000
v -0.63068 -0.30372 0.00000
v -0.15576 -0.68245 0.00000
v -0.10013 -0.43872 3.00000
v -0.40544 -0.19525 3.00000
v -0.15576 -0.68245 0.00000
v 0.43644 -0.54728 0.00000
v 0.28057 -0.35182 3.00000
v -0.10013 -0.43872 3.00000
v 0.43644 -0.54728 0.00000
v 0.70000 -0.00000 0.00000
v 0.45000 -0.00000 3.00000
v 0.28057 -0.35182 3.00000
vt 0.00000 1.00000
vt 1.00000 1.00000
vt 1.00000 0.00000
vt 0.00000 0.00000
vt 0.00000 1.00000
vt 1.00000 1.00000
vt 1.00000 0.00000
vt 0.00000 0.00000
vt 0.00000 1.00000
vt 1.00000 1.00000
vt 1.00000 0.00000
vt 0.00000 0.00000
vt 0.00000 1.00000
vt 1.00000 1.00000
vt 1.00000 0.00000
vt 0.00000 0.00000
vt 0.00000 1.00000
vt 1.00000 1.00000
vt 1.00000 0.00000
vt 0.00000 0.00000
vt 0.00000 1.00000
vt 1.00000 1.00000
vt 1.00000 0.00000
vt 0.00000 0.00000
vt 0.00000 1.00000
vt 1.00000 1.00000
vt 1.00000 0.00000
vt 0.00000 0.00000
vn 0.90097 0.43388 0.00000
vn 0.90097 0.43388 0.00000
vn 0.90097 0.43388 0.00000
vn 0.90097 0.43388 0.00000
vn 0.22252 0.97493 0.00000
vn 0.22252 0.97493 0.00000
vn 0.22252 0.97493 0.00000
vn 0.22252 0.97493 0.00000
vn -0.62349 0.78183 0.00000
vn -0.62349 0.78183 0.00000
vn -0.62349 0.78183 0.00000
vn -0.62349 0.78183 0.00000
vn -1.00000 0.00000 0.00000
vn -1.00000 0.00000 0.00000
vn -1.00000 0.00000 0.00000
vn -1.00000 0.00000 0.00000
vn -0.62349 -0.78183 0.00000
vn -0.62349 -0.78183 0.00000
vn -0.62349 -0.78183 0.00000
vn -0.62349 -0.78183 0.00000
vn 0.22252 -0.97493 0.00000
vn 0.22252 -0.97493 0.00000
vn 0.22252 -0.97493 0.00000
vn 0.22252 -0.97493 0.00000
vn 0.90097 -0.43388 0.00000
vn 0.90097 -0.43388 0.00000
vn 0.90097 -0.43388 0.00000
vn 0.90097 -0.43388 0.00000
f 1/1/1 2/2/2 3/3/3
f 1/1/1 3/3/3 4/4/4
f 5/5/5 6/6/6 7/7/7
f 5/5/5 7/7/7 8/8/8
f 9/9/9 10/10/10 11/11/11
f 9/9/9 11/11/11 12/12/12
f 13/13/13 14/14/14 15/15/15
f 13/13/13 15/15/15 16/16/16
f 17/17/17 18/18/18 19/19/19
f 17/17/17 19/19/19 20/20/20
f 21/21/21 22/22/22 23/23/23
f 21/21/21 23/23/23 24/24/24
f 25/25/25 26/26/26 27/27/27
f 25/25/25 27/27/27 28/28/28
