mtllib grey_moor_cairn.mtl
usemtl grey_moor_cairn
v 0.80000 0.00000 0.00000
v 0.49879 0.62547 0.00000
v 0.39903 0.50037 0.50000
v 0.64000 0.00000 0.50000
v 0.49879 0.62547 0.00000
v -0.17802 0.77994 0.00000
v -0.14241 0.62395 0.50000
v 0.39903 0.50037 0.50000
v -0.17802 0.77994 0.00000
v -0.72078 0.34711 0.00000
v -0.57662 0.27769 0.50000
v -0.14241 0.62395 0.50000
v -0.72078 0.34711 0.00000
v -0.72078 -0.34711 0.00000
v -0.57662 -0.27769 0.50000
v -0.57662 0.27769 0.50000
v -0.72078 -0.34711 0.00000
v -0.17802 -0.77994 0.00000
v -0.14241 -0.62395 0.50000
v -0.57662 -0.27769 0.50000
v -0.17802 -0.77994 0.00000
v 0.49879 -0.62547 0.00000
v 0.39903 -0.50037 0.50000
v -0.14241 -0.62395 0.50000
v 0.49879 -0.62547 0.00000
v 0.80000 -0.00000 0.00000
v 0.64000 -0.00000 0.50000
v 0.39903 -0.50037 0.50000
v 0.62000 0.00000 0.50000
v 0.38656 0.48474 0.50000
v 0.30925 0.38779 1.00000
v 0.49600 0.00000 1.00000
v 0.38656 0.48474 0.50000
v -0.13796 0.60446 0.50000
v -0.11037 0.48356 1.00000
v 0.30925 0.38779 1.00000
v -0.13796 0.60446 0.50000
v -0.55860 0.26901 0.50000
v -0.44688 0.21521 1.00000
v -0.11037 0.48356 1.00000
v -0.55860 0.26901 0.50000
v -0.55860 -0.26901 0.50000
v -0.44688 -0.21521 1.00000
v -0.44688 0.21521 1.00000
v -0.55860 -0.26901 0.50000
v -0.13796 -0.60446 0.50000
v -0.11037 -0.48356 1.00000
v -0.44688 -0.21521 1.00000
v -0.13796 -0.60446 0.50000
v 0.38656 -0.48474 0.50000
v 0.30925 -0.38779 1.00000
v -0.11037 -0.48356 1.00000
v 0.38656 -0.48474 0.50000
v 0.62000 -0.00000 0.50000
v 0.49600 -0.00000 1.00000
v 0.30925 -0.38779 1.00000
v 0.45000 0.00000 0.95000
v 0.28057 0.35182 0.95000
v 0.22446 0.28146 1.45000
v 0.36000 0.00000 1.45000
v 0.28057 0.35182 0.95000
v -0.10013 0.43872 0.95000
v -0.08011 0.35097 1.45000
v 0.22446 0.28146 1.45000
v -0.10013 0.43872 0.95000
v -0.40544 0.19525 0.95000
v -0.32435 0.15620 1.45000
v -0.08011 0.35097 1.45000
v -0.40544 0.19525 0.95000
v -0.40544 -0.19525 0.95000
v -0.32435 -0.15620 1.45000
v -0.32435 0.15620 1.45000
v -0.40544 -0.19525 0.95000
v -0.10013 -0.43872 0.95000
v -0.08011 -0.35097 1.45000
v -0.32435 -0.15620 1.45000
v -0.10013 -0.43872 0.95000
v 0.28057 -0.35182 0.95000
v 0.22446 -0.28146 1.45000
v -0.08011 -0.35097 1.45000
v 0.28057 -0.35182 0.95000
v 0.45000 -0.00000 0.95000
v 0.36000 -0.00000 1.45000
v 0.22446 -0.28146 1.45000
v 0.28000 0.00000 1.30000
v 0.17458 0.21891 1.30000
v 0.13966 0.17513 1.80000
v 0.22400 0.00000 1.80000
v 0.17458 0.21891 1.30000
v -0.06231 0.27298 1.30000
v -0.04984 0.21838 1.80000
v 0.13966 0.17513 1.80000
v -0.06231 0.27298 1.30000
v -0.25227 0.12149 1.30000
v -0.20182 0.09719 1.80000
v -0.04984 0.21838 1.80000
v -0.25227 0.12149 1.30000
v -0.25227 -0.12149 1.30000
v -0.20182 -0.09719 1.80000
v -0.20182 0.09719 1.80000
v -0.25227 -0.12149 1.30000
v -0.06231 -0.27298 1.30000
v -0.04984 -0.21838 1.80000
v -0.20182 -0.09719 1.80000
v -0.06231 -0.27298 1.30000
v 0.17458 -0.21891 1.30000
v 0.13966 -0.17513 1.80000
v -0.04984 -0.21838 1.80000
v 0.17458 -0.21891 1.30000
v 0.28000 -0.00000 1.30000
v 0.22400 -0.00000 1.80000
v 0.13966 -0.17513 1.80000
vt 0.00000 1.00000
vt 1.00000 1.00000
vt 1.00000 0.00000
vt 0.00000 0.00000
vt 0.00000 1.00000
vt 1.00000 1.00000
vt 1.00000 0.00000
vt 0.00000 0.00000
vt 0.00000 1.00000
vt 1.00000 1.00000
vt 1.00000 0.00000
vt 0.00000 0.00000
vt 0.00000 1.00000
vt 1.00000 1.00000
vt 1.00000 0.00000
vt 0.00000 0.00000
vt 0.00000 1.00000
vt 1.00000 1.00000
vt 1.00000 0.00000
vt 0.00000 0.00000
vt 0.00000 1.00000
vt 1.00000 1.00000
vt 1.00000 0.00000
vt 0.00000 0.00000
vt 0.00000 1.00000
vt 1.00000 1.00000
vt 1.00000 0.00000
vt 0.00000 0.00000
vt 0.00000 1.00000
vt 1.00000 1.00000
vt 1.00000 0.00000
vt 0.00000 0.00000
vt 0.00000 1.00000
vt 1.00000 1.00000
vt 1.00000 0.00000
vt 0.00000 0.00000
vt 0.00000 1.00000
vt 1.00000 1.00000
vt 1.00000 0.00000
vt 0.00000 0.00000
vt 0.00000 1.00000
vt 1.00000 1.00000
vt 1.00000 0.00000
vt 0.00000 0.00000
vt 0.00000 1.00000
vt 1.00000 1.00000
vt 1.00000 0.00000
vt 0.00000 0.00000
vt 0.00000 1.00000
vt 1.00000 1.00000
vt 1.00000 0.00000
vt 0.00000 0.00000
vt 0.00000 1.00000
vt 1.00000 1.00000
vt 1.00000 0.00000
vt 0.00000 0.00000
vt 0.00000 1.00000
vt 1.00000 1.00000
vt 1.00000 0.00000
vt 0.00000 0.00000
vt 0.00000 1.00000
vt 1.00000 1.00000
vt 1.00000 0.00000
vt 0.00000 0.00000
vt 0.00000 1.00000
vt 1.00000 1.00000
vt 1.00000 0.00000
vt 0.00000 0.00000
vt 0.00000 1.00000
vt 1.00000 1.00000
vt 1.00000 0.00000
vt 0.00000 0.00000
vt 0.00000 1.00000
vt 1.00000 1.00000
vt 1.00000 0.00000
vt 0.00000 0.00000
vt 0.00000 1.00000
vt 1.00000 1.00000
vt 1.00000 0.00000
vt 0.00000 0.00000
vt 0.00000 1.00000
vt 1.00000 1.00000
vt 1.00000 0.00000
vt 0.00000 0.00000
vt 0.00000 1.00000
vt 1.00000 1.00000
vt 1.00000 0.00000
vt 0.00000 0.00000
vt 0.00000 1.00000
vt 1.00000 1.00000
vt 1.00000 0.00000
vt 0.00000 0.00000
vt 0.00000 1.00000
vt 1.00000 1.00000
vt 1.00000 0.00000
vt 0.00000 0.00000
vt 0.00000 1.00000
vt 1.00000 1.00000
vt 1.00000 0.00000
vt 0.00000 0.00000
vt 0.00000 1.00000
vt 1.00000 1.00000
vt 1.00000 0.00000
vt 0.00000 0.00000
vt 0.00000 1.00000
vt 1.00000 1.00000
vt 1.00000 0.00000
vt 0.00000 0.00000
vt 0.00000 1.00000
vt 1.00000 1.00000
vt 1.00000 0.00000
vt 0.00000 0.00000
vn 0.90097 0.43388 0.00000
vn 0.90097 0.43388 0.00000
vn 0.90097 0.43388 0.00000
vn 0.90097 0.43388 0.00000
vn 0.22252 0.97493 0.00000
vn 0.22252 0.97493 0.00000
vn 0.22252 0.97493 0.00000
vn 0.22252 0.97493 0.00000
vn -0.62349 0.78183 0.00000
vn -0.62349 0.78183 0.00000
vn -0.62349 0.78183 0.00000
vn -0.62349 0.78183 0.00000
vn -1.00000 0.00000 0.00000
vn -1.00000 0.00000 0.00000
vn -1.00000 0.00000 0.00000
vn -1.00000 0.00000 0.00000
vn -0.62349 -0.78183 0.00000
vn -0.62349 -0.78183 0.00000
vn -0.62349 -0.78183 0.00000
vn -0.62349 -0.78183 0.00000
vn 0.22252 -0.97493 0.00000
vn 0.22252 -0.97493 0.00000
vn 0.22252 -0.97493 0.00000
vn 0.22252 -0.97493 0.00000
vn 0.90097 -0.43388 0.00000
vn 0.90097 -0.43388 0.00000
vn 0.90097 -0.43388 0.00000
vn 0.90097 -0.43388 0.00000
vn 0.90097 0.43388 0.00000
vn 0.90097 0.43388 0.00000
vn 0.90097 0.43388 0.00000
vn 0.90097 0.43388 0.00000
vn 0.22252 0.97493 0.00000
vn 0.22252 0.97493 0.00000
vn 0.22252 0.97493 0.00000
vn 0.22252 0.97493 0.00000
vn -0.62349 0.78183 0.00000
vn -0.62349 0.78183 0.00000
vn -0.62349 0.78183 0.00000
vn -0.62349 0.78183 0.00000
vn -1.00000 0.00000 0.00000
vn -1.00000 0.00000 0.00000
vn -1.00000 0.00000 0.00000
vn -1.00000 0.00000 0.00000
vn -0.62349 -0.78183 0.00000
vn -0.62349 -0.78183 0.00000
vn -0.62349 -0.78183 0.00000
vn -0.62349 -0.78183 0.00000
vn 0.22252 -0.97493 0.00000
vn 0.22252 -0.97493 0.00000
vn 0.22252 -0.97493 0.00000
vn 0.22252 -0.97493 0.00000
vn 0.90097 -0.43388 0.00000
vn 0.90097 -0.43388 0.00000
vn 0.90097 -0.43388 0.00000
vn 0.90097 -0.43388 0.00000
vn 0.90097 0.43388 0.00000
vn 0.90097 0.43388 0.00000
vn 0.90097 0.43388 0.00000
vn 0.90097 0.43388 0.00000
vn 0.22252 0.97493 0.00000
vn 0.22252 0.97493 0.00000
vn 0.22252 0.97493 0.00000
vn 0.22252 0.97493 0.00000
vn -0.62349 0.78183 0.00000
vn -0.62349 0.78183 0.00000
vn -0.62349 0.78183 0.00000
vn -0.62349 0.78183 0.00000
vn -1.00000 0.00000 0.00000
vn -1.00000 0.00000 0.00000
vn -1.00000 0.00000 0.00000
vn -1.00000 0.00000 0.00000
vn -0.62349 -0.78183 0.00000
vn -0.62349 -0.78183 0.00000
vn -0.62349 -0.78183 0.00000
vn -0.62349 -0.78183 0.00000
vn 0.22252 -0.97493 0.00000
vn 0.22252 -0.97493 0.00000
vn 0.22252 -0.97493 0.00000
vn 0.22252 -0.97493 0.00000
vn 0.90097 -0.43388 0.00000
vn 0.90097 -0.43388 0.00000
vn 0.90097 -0.43388 0.00000
vn 0.90097 -0.43388 0.00000
vn 0.90097 0.43388 0.00000
vn 0.90097 0.43388 0.00000
vn 0.90097 0.43388 0.00000
vn 0.90097 0.43388 0.00000
vn 0.22252 0.97493 0.00000
vn 0.22252 0.97493 0.00000
vn 0.22252 0.97493 0.00000
vn 0.22252 0.97493 0.00000
vn -0.62349 0.78183 0.00000
vn -0.62349 0.78183 0.00000
vn -0.62349 0.78183 0.00000
vn -0.62349 0.78183 0.00000
vn -1.00000 0.00000 0.00000
vn -1.00000 0.00000 0.00000
vn -1.00000 0.00000 0.00000
vn -1.00000 0.00000 0.00000
vn -0.62349 -0.78183 0.00000
vn -0.62349 -0.78183 0.00000
vn -0.62349 -0.78183 0.00000
vn -0.62349 -0.78183 0.00000
vn 0.22252 -0.97493 0.00000
vn 0.22252 -0.97493 0.00000
vn 0.22252 -0.97493 0.00000
vn 0.22252 -0.97493 0.00000
vn 0.90097 -0.43388 0.00000
vn 0.90097 -0.43388 0.00000
vn 0.90097 -0.43388 0.00000
vn 0.90097 -0.43388 0.00000
f 1/1/1 2/2/2 3/3/3
f 1/1/1 3/3/3 4/4/4
f 5/5/5 6/6/6 7/7/7
f 5/5/5 7/7/7 8/8/8
f 9/9/9 10/10/10 11/11/11
f 9/9/9 11/11/11 12/12/12
f 13/13/13 14/14/14 15/15/15
f 13/13/13 15/15/15 16/16/16
f 17/17/17 18/18/18 19/19/19
f 17/17/17 19/19/19 20/20/20
f 21/21/21 22/22/22 23/23/23
f 21/21/21 23/23/23 24/24/24
f 25/25/25 26/26/26 27/27/27
f 25/25/25 27/27/27 28/28/28
f 29/29/29 30/30/30 31/31/31
f 29/29/29 31/31/31 32/32/32
f 33/33/33 34/34/34 35/35/35
f 33/33/33 35/35/35 36/36/36
f 37/37/37 38/38/38 39/39/39
f 37/37/37 39/39/39 40/40/40
f 41/41/41 42/42/42 43/43/43
f 41/41/41 43/43/43 44/44/44
f 45/45/45 46/46/46 47/47/47
f 45/45/45 47/47/47 48/48/48
f 49/49/49 50/50/50 51/51/51
f 49/49/49 51/51/51 52/52/52
f 53/53/53 54/54/54 55/55/55
f 53/53/53 55/55/55 56/56/56
f 57/57/57 58/58/58 59/59/59
f 57/57/57 59/59/59 60/60/60
f 61/61/61 62/62/62 63/63/63
f 61/61/61 63/63/63 64/64/64
f 65/65/65 66/66/66 67/67/67
f 65/65/65 67/67/67 68/68/68
f 69/69/69 70/70/70 71/71/71
f 69/69/69 71/71/71 72/72/72
f 73/73/73 74/74/74 75/75/75
f 73/73/73 75/75/75 76/76/76
f 77/77/77 78/78/78 79/79/79
f 77/77/77 79/79/79 80/80/80
f 81/81/81 82/82/82 83/83/83
f 81/81/81 83/83/83 84/84/84
f 85/85/85 86/86/86 87/87/87
f 85/85/85 87/87/87 88/88/88
f 89/89/89 90/90/90 91/91/91
f 89/89/89 91/91/91 92/92/92
f 93/93/93 94/94/94 95/95/95
f 93/93/93 95/95/95 96/96/96
f 97/97/97 98/98/98 99/99/99
f 97/97/97 99/99/99 100/100/100
f 101/101/101 102/102/102 103/103/103
f 101/101/101 103/103/103 104/104/104
f 105/105/105 106/106/106 107/107/107
f 105/105/105 107/107/107 108/108/108
f 109/109/109 110/110/110 111/111/111
f 109/109/109 111/111/111 112/112/112
