mtllib manymouth_mangrove.mtl
usemtl manymouth_mangrove
v 0.32000 0.00000 0.00000
v 0.24513 0.20569 0.00000
v 0.15321 0.12856 3.00000
v 0.20000 0.00000 3.00000
v 0.24513 0.20569 0.00000
v 0.05557 0.31514 0.00000
v 0.03473 0.19696 3.00000
v 0.15321 0.12856 3.00000
v 0.05557 0.31514 0.00000
v -0.16000 0.27713 0.00000
v -0.10000 0.17321 3.00000
v 0.03473 0.19696 3.00000
v -0.16000 0.27713 0.00000
v -0.30070 0.10945 0.00000
v -0.18794 0.06840 3.00000
v -0.10000 0.17321 3.00000
v -0.30070 0.10945 0.00000
v -0.30070 -0.10945 0.00000
v -0.18794 -0.06840 3.00000
v -0.18794 0.06840 3.00000
v -0.30070 -0.10945 0.00000
v -0.16000 -0.27713 0.00000
v -0.10000 -0.17321 3.00000
v -0.18794 -0.06840 3.00000
v -0.16000 -0.27713 0.00000
v 0.05557 -0.31514 0.00000
v 0.03473 -0.19696 3.00000
v -0.10000 -0.17321 3.00000
v 0.05557 -0.31514 0.00000
v 0.24513 -0.20569 0.00000
v 0.15321 -0.12856 3.00000
v 0.03473 -0.19696 3.00000
v 0.24513 -0.20569 0.00000
v 0.32000 -0.00000 0.00000
v 0.20000 -0.00000 3.00000
v 0.15321 -0.12856 3.00000
v 0.68000 0.00000 0.00000
v 0.64988 0.06255 0.00000
v 0.71223 0.14073 2.00000
v 0.78000 0.00000 2.00000
v 0.64988 0.06255 0.00000
v 0.58220 0.07799 0.00000
v 0.55995 0.17549 2.00000
v 0.71223 0.14073 2.00000
v 0.58220 0.07799 0.00000
v 0.52792 0.03471 0.00000
v 0.43783 0.07810 2.00000
v 0.55995 0.17549 2.00000
v 0.52792 0.03471 0.00000
v 0.52792 -0.03471 0.00000
v 0.43783 -0.07810 2.00000
v 0.43783 0.07810 2.00000
v 0.52792 -0.03471 0.00000
v 0.58220 -0.07799 0.00000
v 0.55995 -0.17549 2.00000
v 0.43783 -0.07810 2.00000
v 0.58220 -0.07799 0.00000
v 0.64988 -0.06255 0.00000
v 0.71223 -0.14073 2.00000
v 0.55995 -0.17549 2.00000
v 0.64988 -0.06255 0.00000
v 0.68000 -0.00000 0.00000
v 0.78000 -0.00000 2.00000
v 0.71223 -0.14073 2.00000
v -0.42000 0.20000 0.00000
v -0.45012 0.26255 0.00000
v -0.38777 0.34073 2.00000
v -0.32000 0.20000 2.00000
v -0.45012 0.26255 0.00000
v -0.51780 0.27799 0.00000
v -0.54005 0.37549 2.00000
v -0.38777 0.34073 2.00000
v -0.51780 0.27799 0.00000
v -0.57208 0.23471 0.00000
v -0.66217 0.27810 2.00000
v -0.54005 0.37549 2.00000
v -0.57208 0.23471 0.00000
v -0.57208 0.16529 0.00000
v -0.66217 0.12190 2.00000
v -0.66217 0.27810 2.00000
v -0.57208 0.16529 0.00000
v -0.51780 0.12201 0.00000
v -0.54005 0.02451 2.00000
v -0.66217 0.12190 2.00000
v -0.51780 0.12201 0.00000
v -0.45012 0.13745 0.00000
v -0.38777 0.05927 2.00000
v -0.54005 0.02451 2.00000
v -0.45012 0.13745 0.00000
v -0.42000 0.20000 0.00000
v -0.32000 0.20000 2.00000
v -0.38777 0.05927 2.00000
v 0.08000 0.55000 0.00000
v 0.04988 0.61255 0.00000
v 0.11223 0.69073 2.00000
v 0.18000 0.55000 2.00000
v 0.04988 0.61255 0.00000
v -0.01780 0.62799 0.00000
v -0.04005 0.72549 2.00000
v 0.11223 0.69073 2.00000
v -0.01780 0.62799 0.00000
v -0.07208 0.58471 0.00000
v -0.16217 0.62810 2.00000
v -0.04005 0.72549 2.00000
v -0.07208 0.58471 0.00000
v -0.07208 0.51529 0.00000
v -0.16217 0.47190 2.00000
v -0.16217 0.62810 2.00000
v -0.07208 0.51529 0.00000
v -0.01780 0.47201 0.00000
v -0.04005 0.37451 2.00000
v -0.16217 0.47190 2.00000
v -0.01780 0.47201 0.00000
v 0.04988 0.48745 0.00000
v 0.11223 0.40927 2.00000
v -0.04005 0.37451 2.00000
v 0.04988 0.48745 0.00000
v 0.08000 0.55000 0.00000
v 0.18000 0.55000 2.00000
v 0.11223 0.40927 2.00000
v 1.60000 0.00000 2.00000
v 1.29443 0.94046 2.00000
v 0.06472 0.04702 4.60000
v 0.08000 0.00000 4.60000
v 1.29443 0.94046 2.00000
v 0.49443 1.52169 2.00000
v 0.02472 0.07608 4.60000
v 0.06472 0.04702 4.60000
v 0.49443 1.52169 2.00000
v -0.49443 1.52169 2.00000
v -0.02472 0.07608 4.60000
v 0.02472 0.07608 4.60000
v -0.49443 1.52169 2.00000
v -1.29443 0.94046 2.00000
v -0.06472 0.04702 4.60000
v -0.02472 0.07608 4.60000
v -1.29443 0.94046 2.00000
v -1.60000 0.00000 2.00000
v -0.08000 0.00000 4.60000
v -0.06472 0.04702 4.60000
v -1.60000 0.00000 2.00000
v -1.29443 -0.94046 2.00000
v -0.06472 -0.04702 4.60000
v -0.08000 0.00000 4.60000
v -1.29443 -0.94046 2.00000
v -0.49443 -1.52169 2.00000
v -0.02472 -0.07608 4.60000
v -0.06472 -0.04702 4.60000
v -0.49443 -1.52169 2.00000
v 0.49443 -1.52169 2.00000
v 0.02472 -0.07608 4.60000
v -0.02472 -0.07608 4.60000
v 0.49443 -1.52169 2.00000
v 1.29443 -0.94046 2.00000
v 0.06472 -0.04702 4.60000
v 0.02472 -0.07608 4.60000
v 1.29443 -0.94046 2.00000
v 1.60000 -0.00000 2.00000
v 0.08000 -0.00000 4.60000
v 0.06472 -0.04702 4.60000
vt 0.00000 1.00000
vt 1.00000 1.00000
vt 1.00000 0.00000
vt 0.00000 0.00000
vt 0.00000 1.00000
vt 1.00000 1.00000
vt 1.00000 0.00000
vt 0.00000 0.00000
vt 0.00000 1.00000
vt 1.00000 1.00000
vt 1.00000 0.00000
vt 0.00000 0.00000
vt 0.00000 1.00000
vt 1.00000 1.00000
vt 1.00000 0.00000
vt 0.00000 0.00000
vt 0.00000 1.00000
vt 1.00000 1.00000
vt 1.00000 0.00000
vt 0.00000 0.00000
vt 0.00000 1.00000
vt 1.00000 1.00000
vt 1.00000 0.00000
vt 0.00000 0.00000
vt 0.00000 1.00000
vt 1.00000 1.00000
vt 1.00000 0.00000
vt 0.00000 0.00000
vt 0.00000 1.00000
vt 1.00000 1.00000
vt 1.00000 0.00000
vt 0.00000 0.00000
vt 0.00000 1.00000
vt 1.00000 1.00000
vt 1.00000 0.00000
vt 0.00000 0.00000
vt 0.00000 1.00000
vt 1.00000 1.00000
vt 1.00000 0.00000
vt 0.00000 0.00000
vt 0.00000 1.00000
vt 1.00000 1.00000
vt 1.00000 0.00000
vt 0.00000 0.00000
vt 0.00000 1.00000
vt 1.00000 1.00000
vt 1.00000 0.00000
vt 0.00000 0.00000
vt 0.00000 1.00000
vt 1.00000 1.00000
vt 1.00000 0.00000
vt 0.00000 0.00000
vt 0.00000 1.00000
vt 1.00000 1.00000
vt 1.00000 0.00000
vt 0.00000 0.00000
vt 0.00000 1.00000
vt 1.00000 1.00000
vt 1.00000 0.00000
vt 0.00000 0.00000
vt 0.00000 1.00000
vt 1.00000 1.00000
vt 1.00000 0.00000
vt 0.00000 0.00000
vt 0.00000 1.00000
vt 1.00000 1.00000
vt 1.00000 0.00000
vt 0.00000 0.00000
vt 0.00000 1.00000
vt 1.00000 1.00000
vt 1.00000 0.00000
vt 0.00000 0.00000
vt 0.00000 1.00000
vt 1.00000 1.00000
vt 1.00000 0.00000
vt 0.00000 0.00000
vt 0.00000 1.00000
vt 1.00000 1.00000
vt 1.00000 0.00000
vt 0.00000 0.00000
vt 0.00000 1.00000
vt 1.00000 1.00000
vt 1.00000 0.00000
vt 0.00000 0.00000
vt 0.00000 1.00000
vt 1.00000 1.00000
vt 1.00000 0.00000
vt 0.00000 0.00000
vt 0.00000 1.00000
vt 1.00000 1.00000
vt 1.00000 0.00000
vt 0.00000 0.00000
vt 0.00000 1.00000
vt 1.00000 1.00000
vt 1.00000 0.00000
vt 0.00000 0.00000
vt 0.00000 1.00000
vt 1.00000 1.00000
vt 1.00000 0.00000
vt 0.00000 0.00000
vt 0.00000 1.00000
vt 1.00000 1.00000
vt 1.00000 0.00000
vt 0.00000 0.00000
vt 0.00000 1.00000
vt 1.00000 1.00000
vt 1.00000 0.00000
vt 0.00000 0.00000
vt 0.00000 1.00000
vt 1.00000 1.00000
vt 1.00000 0.00000
vt 0.00000 0.00000
vt 0.00000 1.00000
vt 1.00000 1.00000
vt 1.00000 0.00000
vt 0.00000 0.00000
vt 0.00000 1.00000
vt 1.00000 1.00000
vt 1.00000 0.00000
vt 0.00000 0.00000
vt 0.00000 1.00000
vt 1.00000 1.00000
vt 1.00000 0.00000
vt 0.00000 0.00000
vt 0.00000 1.00000
vt 1.00000 1.00000
vt 1.00000 0.00000
vt 0.00000 0.00000
vt 0.00000 1.00000
vt 1.00000 1.00000
vt 1.00000 0.00000
vt 0.00000 0.00000
vt 0.00000 1.00000
vt 1.00000 1.00000
vt 1.00000 0.00000
vt 0.00000 0.00000
vt 0.00000 1.00000
vt 1.00000 1.00000
vt 1.00000 0.00000
vt 0.00000 0.00000
vt 0.00000 1.00000
vt 1.00000 1.00000
vt 1.00000 0.00000
vt 0.00000 0.00000
vt 0.00000 1.00000
vt 1.00000 1.00000
vt 1.00000 0.00000
vt 0.00000 0.00000
vt 0.00000 1.00000
vt 1.00000 1.00000
vt 1.00000 0.00000
vt 0.00000 0.00000
vt 0.00000 1.00000
vt 1.00000 1.00000
vt 1.00000 0.00000
vt 0.00000 0.00000
vt 0.00000 1.00000
vt 1.00000 1.00000
vt 1.00000 0.00000
vt 0.00000 0.00000
vn 0.93969 0.34202 0.00000
vn 0.93969 0.34202 0.00000
vn 0.93969 0.34202 0.00000
vn 0.93969 0.34202 0.00000
vn 0.50000 0.86603 0.00000
vn 0.50000 0.86603 0.00000
vn 0.50000 0.86603 0.00000
vn 0.50000 0.86603 0.00000
vn -0.17365 0.98481 0.00000
vn -0.17365 0.98481 0.00000
vn -0.17365 0.98481 0.00000
vn -0.17365 0.98481 0.00000
vn -0.76604 0.64279 0.00000
vn -0.76604 0.64279 0.00000
vn -0.76604 0.64279 0.00000
vn -0.76604 0.64279 0.00000
vn -1.00000 0.00000 0.00000
vn -1.00000 0.00000 0.00000
vn -1.00000 0.00000 0.00000
vn -1.00000 0.00000 0.00000
vn -0.76604 -0.64279 0.00000
vn -0.76604 -0.64279 0.00000
vn -0.76604 -0.64279 0.00000
vn -0.76604 -0.64279 0.00000
vn -0.17365 -0.98481 0.00000
vn -0.17365 -0.98481 0.00000
vn -0.17365 -0.98481 0.00000
vn -0.17365 -0.98481 0.00000
vn 0.50000 -0.86603 0.00000
vn 0.50000 -0.86603 0.00000
vn 0.50000 -0.86603 0.00000
vn 0.50000 -0.86603 0.00000
vn 0.93969 -0.34202 0.00000
vn 0.93969 -0.34202 0.00000
vn 0.93969 -0.34202 0.00000
vn 0.93969 -0.34202 0.00000
vn 0.90097 0.43388 0.00000
vn 0.90097 0.43388 0.00000
vn 0.90097 0.43388 0.00000
vn 0.90097 0.43388 0.00000
vn 0.22252 0.97493 0.00000
vn 0.22252 0.97493 0.00000
vn 0.22252 0.97493 0.00000
vn 0.22252 0.97493 0.00000
vn -0.62349 0.78183 0.00000
vn -0.62349 0.78183 0.00000
vn -0.62349 0.78183 0.00000
vn -0.62349 0.78183 0.00000
vn -1.00000 0.00000 0.00000
vn -1.00000 0.00000 0.00000
vn -1.00000 0.00000 0.00000
vn -1.00000 0.00000 0.00000
vn -0.62349 -0.78183 0.00000
vn -0.62349 -0.78183 0.00000
vn -0.62349 -0.78183 0.00000
vn -0.62349 -0.78183 0.00000
vn 0.22252 -0.97493 0.00000
vn 0.22252 -0.97493 0.00000
vn 0.22252 -0.97493 0.00000
vn 0.22252 -0.97493 0.00000
vn 0.90097 -0.43388 0.00000
vn 0.90097 -0.43388 0.00000
vn 0.90097 -0.43388 0.00000
vn 0.90097 -0.43388 0.00000
vn 0.90097 0.43388 0.00000
vn 0.90097 0.43388 0.00000
vn 0.90097 0.43388 0.00000
vn 0.90097 0.43388 0.00000
vn 0.22252 0.97493 0.00000
vn 0.22252 0.97493 0.00000
vn 0.22252 0.97493 0.00000
vn 0.22252 0.97493 0.00000
vn -0.62349 0.78183 0.00000
vn -0.62349 0.78183 0.00000
vn -0.62349 0.78183 0.00000
vn -0.62349 0.78183 0.00000
vn -1.00000 0.00000 0.00000
vn -1.00000 0.00000 0.00000
vn -1.00000 0.00000 0.00000
vn -1.00000 0.00000 0.00000
vn -0.62349 -0.78183 0.00000
vn -0.62349 -0.78183 0.00000
vn -0.62349 -0.78183 0.00000
vn -0.62349 -0.78183 0.00000
vn 0.22252 -0.97493 0.00000
vn 0.22252 -0.97493 0.00000
vn 0.22252 -0.97493 0.00000
vn 0.22252 -0.97493 0.00000
vn 0.90097 -0.43388 0.00000
vn 0.90097 -0.43388 0.00000
vn 0.90097 -0.43388 0.00000
vn 0.90097 -0.43388 0.00000
vn 0.90097 0.43388 0.00000
vn 0.90097 0.43388 0.00000
vn 0.90097 0.43388 0.00000
vn 0.90097 0.43388 0.00000
vn 0.22252 0.97493 0.00000
vn 0.22252 0.97493 0.00000
vn 0.22252 0.97493 0.00000
vn 0.22252 0.97493 0.00000
vn -0.62349 0.78183 0.00000
vn -0.62349 0.78183 0.00000
vn -0.62349 0.78183 0.00000
vn -0.62349 0.78183 0.00000
vn -1.00000 0.00000 0.00000
vn -1.00000 0.00000 0.00000
vn -1.00000 0.00000 0.00000
vn -1.00000 0.00000 0.00000
vn -0.62349 -0.78183 0.00000
vn -0.62349 -0.78183 0.00000
vn -0.62349 -0.78183 0.00000
vn -0.62349 -0.78183 0.00000
vn 0.22252 -0.97493 0.00000
vn 0.22252 -0.97493 0.00000
vn 0.22252 -0.97493 0.00000
vn 0.22252 -0.97493 0.00000
vn 0.90097 -0.43388 0.00000
vn 0.90097 -0.43388 0.00000
vn 0.90097 -0.43388 0.00000
vn 0.90097 -0.43388 0.00000
vn 0.95106 0.30902 0.00000
vn 0.95106 0.30902 0.00000
vn 0.95106 0.30902 0.00000
vn 0.95106 0.30902 0.00000
vn 0.58779 0.80902 0.00000
vn 0.58779 0.80902 0.00000
vn 0.58779 0.80902 0.00000
vn 0.58779 0.80902 0.00000
vn 0.00000 1.00000 0.00000
vn 0.00000 1.00000 0.00000
vn 0.00000 1.00000 0.00000
vn 0.00000 1.00000 0.00000
vn -0.58779 0.80902 0.00000
vn -0.58779 0.80902 0.00000
vn -0.58779 0.80902 0.00000
vn -0.58779 0.80902 0.00000
vn -0.95106 0.30902 0.00000
vn -0.95106 0.30902 0.00000
vn -0.95106 0.30902 0.00000
vn -0.95106 0.30902 0.00000
vn -0.95106 -0.30902 0.00000
vn -0.95106 -0.30902 0.00000
vn -0.95106 -0.30902 0.00000
vn -0.95106 -0.30902 0.00000
vn -0.58779 -0.80902 0.00000
vn -0.58779 -0.80902 0.00000
vn -0.58779 -0.80902 0.00000
vn -0.58779 -0.80902 0.00000
vn -0.00000 -1.00000 0.00000
vn -0.00000 -1.00000 0.00000
vn -0.00000 -1.00000 0.00000
vn -0.00000 -1.00000 0.00000
vn 0.58779 -0.80902 0.00000
vn 0.58779 -0.80902 0.00000
vn 0.58779 -0.80902 0.00000
vn 0.58779 -0.80902 0.00000
vn 0.95106 -0.30902 0.00000
vn 0.95106 -0.30902 0.00000
vn 0.95106 -0.30902 0.00000
vn 0.95106 -0.30902 0.00000
f 1/1/1 2/2/2 3/3/3
f 1/1/1 3/3/3 4/4/4
f 5/5/5 6/6/6 7/7/7
f 5/5/5 7/7/7 8/8/8
f 9/9/9 10/10/10 11/11/11
f 9/9/9 11/11/11 12/12/12
f 13/13/13 14/14/14 15/15/15
f 13/13/13 15/15/15 16/16/16
f 17/17/17 18/18/18 19/19/19
f 17/17/17 19/19/19 20/20/20
f 21/21/21 22/22/22 23/23/23
f 21/21/21 23/23/23 24/24/24
f 25/25/25 26/26/26 27/27/27
f 25/25/25 27/27/27 28/28/28
f 29/29/29 30/30/30 31/31/31
f 29/29/29 31/31/31 32/32/32
f 33/33/33 34/34/34 35/35/35
f 33/33/33 35/35/35 36/36/36
f 37/37/37 38/38/38 39/39/39
f 37/37/37 39/39/39 40/40/40
f 41/41/41 42/42/42 43/43/43
f 41/41/41 43/43/43 44/44/44
f 45/45/45 46/46/46 47/47/47
f 45/45/45 47/47/47 48/48/48
f 49/49/49 50/50/50 51/51/51
f 49/49/49 51/51/51 52/52/52
f 53/53/53 54/54/54 55/55/55
f 53/53/53 55/55/55 56/56/56
f 57/57/57 58/58/58 59/59/59
f 57/57/57 59/59/59 60/60/60
f 61/61/61 62/62/62 63/63/63
f 61/61/61 63/63/63 64/64/64
f 65/65/65 66/66/66 67/67/67
f 65/65/65 67/67/67 68/68/68
f 69/69/69 70/70/70 71/71/71
f 69/69/69 71/71/71 72/72/72
f 73/73/73 74/74/74 75/75/75
f 73/73/73 75/75/75 76/76/76
f 77/77/77 78/78/78 79/79/79
f 77/77/77 79/79/79 80/80/80
f 81/81/81 82/82/82 83/83/83
f 81/81/81 83/83/83 84/84/84
f 85/85/85 86/86/86 87/87/87
f 85/85/85 87/87/87 88/88/88
f 89/89/89 90/90/90 91/91/91
f 89/89/89 91/91/91 92/92/92
f 93/93/93 94/94/94 95/95/95
f 93/93/93 95/95/95 96/96/96
f 97/97/97 98/98/98 99/99/99
f 97/97/97 99/99/99 100/100/100
f 101/101/101 102/102/102 103/103/103
f 101/101/101 103/103/103 104/104/104
f 105/105/105 106/106/106 107/107/107
f 105/105/105 107/107/107 108/108/108
f 109/109/109 110/110/110 111/111/111
f 109/109/109 111/111/111 112/112/112
f 113/113/113 114/114/114 115/115/115
f 113/113/113 115/115/115 116/116/116
f 117/117/117 118/118/118 119/119/119
f 117/117/117 119/119/119 120/120/120
f 121/121/121 122/122/122 123/123/123
f 121/121/121 123/123/123 124/124/124
f 125/125/125 126/126/126 127/127/127
f 125/125/125 127/127/127 128/128/128
f 129/129/129 130/130/130 131/131/131
f 129/129/129 131/131/131 132/132/132
f 133/133/133 134/134/134 135/135/135
f 133/133/133 135/135/135 136/136/136
f 137/137/137 138/138/138 139/139/139
f 137/137/137 139/139/139 140/140/140
f 141/141/141 142/142/142 143/143/143
f 141/141/141 143/143/143 144/144/144
f 145/145/145 146/146/146 147/147/147
f 145/145/145 147/147/147 148/148/148
f 149/149/149 150/150/150 151/151/151
f 149/149/149 151/151/151 152/152/152
f 153/153/153 154/154/154 155/155/155
f 153/153/153 155/155/155 156/156/156
f 157/157/157 158/158/158 159/159/159
f 157/157/157 159/159/159 160/160/160
