mtllib riverflax.mtl
usemtl riverflax
v 0.38000 0.00000 0.00000
v 0.26870 0.26870 0.00000
v 0.23108 0.23108 0.04500
v 0.32680 0.00000 0.04500
v 0.26870 0.26870 0.00000
v 0.00000 0.38000 0.00000
v 0.00000 0.32680 0.04500
v 0.23108 0.23108 0.04500
v 0.00000 0.38000 0.00000
v -0.26870 0.26870 0.00000
v -0.23108 0.23108 0.04500
v 0.00000 0.32680 0.04500
v -0.26870 0.26870 0.00000
v -0.38000 0.00000 0.00000
v -0.32680 0.00000 0.04500
v -0.23108 0.23108 0.04500
v -0.38000 0.00000 0.00000
v -0.26870 -0.26870 0.00000
v -0.23108 -0.23108 0.04500
v -0.32680 0.00000 0.04500
v -0.26870 -0.26870 0.00000
v -0.00000 -0.38000 0.00000
v -0.00000 -0.32680 0.04500
v -0.23108 -0.23108 0.04500
v -0.00000 -0.38000 0.00000
v 0.26870 -0.26870 0.00000
v 0.23108 -0.23108 0.04500
v -0.00000 -0.32680 0.04500
v 0.26870 -0.26870 0.00000
v 0.38000 -0.00000 0.00000
v 0.32680 -0.00000 0.04500
v 0.23108 -0.23108 0.04500
v 0.00000 0.00000 0.04500
v 0.32680 0.00000 0.04500
v 0.23108 0.23108 0.04500
v 0.00000 0.00000 0.04500
v 0.00000 0.00000 0.04500
v 0.23108 0.23108 0.04500
v 0.00000 0.32680 0.04500
v 0.00000 0.00000 0.04500
v 0.00000 0.00000 0.04500
v 0.00000 0.32680 0.04500
v -0.23108 0.23108 0.04500
v 0.00000 0.00000 0.04500
v 0.00000 0.00000 0.04500
v -0.23108 0.23108 0.04500
v -0.32680 0.00000 0.04500
v 0.00000 0.00000 0.04500
v 0.00000 0.00000 0.04500
v -0.32680 0.00000 0.04500
v -0.23108 -0.23108 0.04500
v 0.00000 0.00000 0.04500
v 0.00000 0.00000 0.04500
v -0.23108 -0.23108 0.04500
v -0.00000 -0.32680 0.04500
v 0.00000 0.00000 0.04500
v 0.00000 0.00000 0.04500
v -0.00000 -0.32680 0.04500
v 0.23108 -0.23108 0.04500
v 0.00000 0.00000 0.04500
v 0.00000 0.00000 0.04500
v 0.23108 -0.23108 0.04500
v 0.32680 -0.00000 0.04500
v 0.00000 0.00000 0.04500
v 0.10832 0.02804 0.04000
v 0.07930 0.06798 0.04000
v 0.15789 0.08480 0.92040
v 0.17309 0.06388 0.92040
v 0.07930 0.06798 0.04000
v 0.03234 0.05273 0.04000
v 0.13329 0.07681 0.92040
v 0.15789 0.08480 0.92040
v 0.03234 0.05273 0.04000
v 0.03234 0.00335 0.04000
v 0.13329 0.05095 0.92040
v 0.13329 0.07681 0.92040
v 0.03234 0.00335 0.04000
v 0.07930 -0.01191 0.04000
v 0.15789 0.04296 0.92040
v 0.13329 0.05095 0.92040
v 0.07930 -0.01191 0.04000
v 0.10832 0.02804 0.04000
v 0.17309 0.06388 0.92040
v 0.15789 0.04296 0.92040
v 0.22609 0.06388 0.82040
v 0.18859 0.12883 0.82040
v 0.15909 0.07774 0.95540
v 0.16709 0.06388 0.95540
v 0.18859 0.12883 0.82040
v 0.11359 0.12883 0.82040
v 0.14309 0.07774 0.95540
v 0.15909 0.07774 0.95540
v 0.11359 0.12883 0.82040
v 0.07609 0.06388 0.82040
v 0.13509 0.06388 0.95540
v 0.14309 0.07774 0.95540
v 0.07609 0.06388 0.82040
v 0.11359 -0.00107 0.82040
v 0.14309 0.05002 0.95540
v 0.13509 0.06388 0.95540
v 0.11359 -0.00107 0.82040
v 0.18859 -0.00107 0.82040
v 0.15909 0.05002 0.95540
v 0.14309 0.05002 0.95540
v 0.18859 -0.00107 0.82040
v 0.22609 0.06388 0.82040
v 0.16709 0.06388 0.95540
v 0.15909 0.05002 0.95540
v 0.12170 0.19645 0.04000
v 0.09268 0.23639 0.04000
v 0.12841 0.32070 1.11510
v 0.14362 0.29978 1.11510
v 0.09268 0.23639 0.04000
v 0.04572 0.22114 0.04000
v 0.10382 0.31271 1.11510
v 0.12841 0.32070 1.11510
v 0.04572 0.22114 0.04000
v 0.04572 0.17176 0.04000
v 0.10382 0.28685 1.11510
v 0.10382 0.31271 1.11510
v 0.04572 0.17176 0.04000
v 0.09268 0.15651 0.04000
v 0.12841 0.27886 1.11510
v 0.10382 0.28685 1.11510
v 0.09268 0.15651 0.04000
v 0.12170 0.19645 0.04000
v 0.14362 0.29978 1.11510
v 0.12841 0.27886 1.11510
v 0.19662 0.29978 1.01510
v 0.15912 0.36473 1.01510
v 0.12962 0.31364 1.15010
v 0.13762 0.29978 1.15010
v 0.15912 0.36473 1.01510
v 0.08412 0.36473 1.01510
v 0.11362 0.31364 1.15010
v 0.12962 0.31364 1.15010
v 0.08412 0.36473 1.01510
v 0.04662 0.29978 1.01510
v 0.10562 0.29978 1.15010
v 0.11362 0.31364 1.15010
v 0.04662 0.29978 1.01510
v 0.08412 0.23483 1.01510
v 0.11362 0.28592 1.15010
v 0.10562 0.29978 1.15010
v 0.08412 0.23483 1.01510
v 0.15912 0.23483 1.01510
v 0.12962 0.28592 1.15010
v 0.11362 0.28592 1.15010
v 0.15912 0.23483 1.01510
v 0.19662 0.29978 1.01510
v 0.13762 0.29978 1.15010
v 0.12962 0.28592 1.15010
v -0.01875 0.14369 0.04000
v -0.04777 0.18363 0.04000
v -0.09232 0.25536 0.98530
v -0.07712 0.23444 0.98530
v -0.04777 0.18363 0.04000
v -0.09473 0.16837 0.04000
v -0.11692 0.24737 0.98530
v -0.09232 0.25536 0.98530
v -0.09473 0.16837 0.04000
v -0.09473 0.11900 0.04000
v -0.11692 0.22151 0.98530
v -0.11692 0.24737 0.98530
v -0.09473 0.11900 0.04000
v -0.04777 0.10374 0.04000
v -0.09232 0.21351 0.98530
v -0.11692 0.22151 0.98530
v -0.04777 0.10374 0.04000
v -0.01875 0.14369 0.04000
v -0.07712 0.23444 0.98530
v -0.09232 0.21351 0.98530
v -0.02412 0.23444 0.88530
v -0.06162 0.29939 0.88530
v -0.09112 0.24829 1.02030
v -0.08312 0.23444 1.02030
v -0.06162 0.29939 0.88530
v -0.13662 0.29939 0.88530
v -0.10712 0.24829 1.02030
v -0.09112 0.24829 1.02030
v -0.13662 0.29939 0.88530
v -0.17412 0.23444 0.88530
v -0.11512 0.23444 1.02030
v -0.10712 0.24829 1.02030
v -0.17412 0.23444 0.88530
v -0.13662 0.16949 0.88530
v -0.10712 0.22058 1.02030
v -0.11512 0.23444 1.02030
v -0.13662 0.16949 0.88530
v -0.06162 0.16949 0.88530
v -0.09112 0.22058 1.02030
v -0.10712 0.22058 1.02030
v -0.06162 0.16949 0.88530
v -0.02412 0.23444 0.88530
v -0.08312 0.23444 1.02030
v -0.09112 0.22058 1.02030
v -0.05066 0.03759 0.04000
v -0.07969 0.07754 0.04000
v -0.19521 0.10288 1.18000
v -0.18001 0.08195 1.18000
v -0.07969 0.07754 0.04000
v -0.12664 0.06228 0.04000
v -0.21981 0.09488 1.18000
v -0.19521 0.10288 1.18000
v -0.12664 0.06228 0.04000
v -0.12664 0.01291 0.04000
v -0.21981 0.06902 1.18000
v -0.21981 0.09488 1.18000
v -0.12664 0.01291 0.04000
v -0.07969 -0.00235 0.04000
v -0.19521 0.06103 1.18000
v -0.21981 0.06902 1.18000
v -0.07969 -0.00235 0.04000
v -0.05066 0.03759 0.04000
v -0.18001 0.08195 1.18000
v -0.19521 0.06103 1.18000
v -0.12701 0.08195 1.08000
v -0.16451 0.14690 1.08000
v -0.19401 0.09581 1.21500
v -0.18601 0.08195 1.21500
v -0.16451 0.14690 1.08000
v -0.23951 0.14690 1.08000
v -0.21001 0.09581 1.21500
v -0.19401 0.09581 1.21500
v -0.23951 0.14690 1.08000
v -0.27701 0.08195 1.08000
v -0.21801 0.08195 1.21500
v -0.21001 0.09581 1.21500
v -0.27701 0.08195 1.08000
v -0.23951 0.01700 1.08000
v -0.21001 0.06810 1.21500
v -0.21801 0.08195 1.21500
v -0.23951 0.01700 1.08000
v -0.16451 0.01700 1.08000
v -0.19401 0.06810 1.21500
v -0.21001 0.06810 1.21500
v -0.16451 0.01700 1.08000
v -0.12701 0.08195 1.08000
v -0.18601 0.08195 1.21500
v -0.19401 0.06810 1.21500
v -0.17905 -0.09346 0.04000
v -0.20808 -0.05352 0.04000
v -0.31099 -0.11343 1.05020
v -0.29578 -0.13436 1.05020
v -0.20808 -0.05352 0.04000
v -0.25503 -0.06877 0.04000
v -0.33558 -0.12143 1.05020
v -0.31099 -0.11343 1.05020
v -0.25503 -0.06877 0.04000
v -0.25503 -0.11815 0.04000
v -0.33558 -0.14729 1.05020
v -0.33558 -0.12143 1.05020
v -0.25503 -0.11815 0.04000
v -0.20808 -0.13340 0.04000
v -0.31099 -0.15528 1.05020
v -0.33558 -0.14729 1.05020
v -0.20808 -0.13340 0.04000
v -0.17905 -0.09346 0.04000
v -0.29578 -0.13436 1.05020
v -0.31099 -0.15528 1.05020
v -0.24278 -0.13436 0.95020
v -0.28028 -0.06941 0.95020
v -0.30978 -0.12050 1.08520
v -0.30178 -0.13436 1.08520
v -0.28028 -0.06941 0.95020
v -0.35528 -0.06941 0.95020
v -0.32578 -0.12050 1.08520
v -0.30978 -0.12050 1.08520
v -0.35528 -0.06941 0.95020
v -0.39278 -0.13436 0.95020
v -0.33378 -0.13436 1.08520
v -0.32578 -0.12050 1.08520
v -0.39278 -0.13436 0.95020
v -0.35528 -0.19931 0.95020
v -0.32578 -0.14821 1.08520
v -0.33378 -0.13436 1.08520
v -0.35528 -0.19931 0.95020
v -0.28028 -0.19931 0.95020
v -0.30978 -0.14821 1.08520
v -0.32578 -0.14821 1.08520
v -0.28028 -0.19931 0.95020
v -0.24278 -0.13436 0.95020
v -0.30178 -0.13436 1.08520
v -0.30978 -0.14821 1.08520
v -0.02717 -0.17050 0.04000
v -0.05619 -0.13056 0.04000
v -0.09697 -0.23487 0.92040
v -0.08177 -0.25579 0.92040
v -0.05619 -0.13056 0.04000
v -0.10315 -0.14582 0.04000
v -0.12157 -0.24286 0.92040
v -0.09697 -0.23487 0.92040
v -0.10315 -0.14582 0.04000
v -0.10315 -0.19519 0.04000
v -0.12157 -0.26872 0.92040
v -0.12157 -0.24286 0.92040
v -0.10315 -0.19519 0.04000
v -0.05619 -0.21045 0.04000
v -0.09697 -0.27672 0.92040
v -0.12157 -0.26872 0.92040
v -0.05619 -0.21045 0.04000
v -0.02717 -0.17050 0.04000
v -0.08177 -0.25579 0.92040
v -0.09697 -0.27672 0.92040
v -0.02877 -0.25579 0.82040
v -0.06627 -0.19084 0.82040
v -0.09577 -0.24194 0.95540
v -0.08777 -0.25579 0.95540
v -0.06627 -0.19084 0.82040
v -0.14127 -0.19084 0.82040
v -0.11177 -0.24194 0.95540
v -0.09577 -0.24194 0.95540
v -0.14127 -0.19084 0.82040
v -0.17877 -0.25579 0.82040
v -0.11977 -0.25579 0.95540
v -0.11177 -0.24194 0.95540
v -0.17877 -0.25579 0.82040
v -0.14127 -0.32074 0.82040
v -0.11177 -0.26965 0.95540
v -0.11977 -0.25579 0.95540
v -0.14127 -0.32074 0.82040
v -0.06627 -0.32074 0.82040
v -0.09577 -0.26965 0.95540
v -0.11177 -0.26965 0.95540
v -0.06627 -0.32074 0.82040
v -0.02877 -0.25579 0.82040
v -0.08777 -0.25579 0.95540
v -0.09577 -0.26965 0.95540
v 0.09185 -0.11790 0.04000
v 0.06282 -0.07795 0.04000
v 0.10007 -0.19968 1.11510
v 0.11527 -0.22060 1.11510
v 0.06282 -0.07795 0.04000
v 0.01587 -0.09321 0.04000
v 0.07547 -0.20767 1.11510
v 0.10007 -0.19968 1.11510
v 0.01587 -0.09321 0.04000
v 0.01587 -0.14258 0.04000
v 0.07547 -0.23353 1.11510
v 0.07547 -0.20767 1.11510
v 0.01587 -0.14258 0.04000
v 0.06282 -0.15784 0.04000
v 0.10007 -0.24153 1.11510
v 0.07547 -0.23353 1.11510
v 0.06282 -0.15784 0.04000
v 0.09185 -0.11790 0.04000
v 0.11527 -0.22060 1.11510
v 0.10007 -0.24153 1.11510
v 0.16827 -0.22060 1.01510
v 0.13077 -0.15565 1.01510
v 0.10127 -0.20675 1.15010
v 0.10927 -0.22060 1.15010
v 0.13077 -0.15565 1.01510
v 0.05577 -0.15565 1.01510
v 0.08527 -0.20675 1.15010
v 0.10127 -0.20675 1.15010
v 0.05577 -0.15565 1.01510
v 0.01827 -0.22060 1.01510
v 0.07727 -0.22060 1.15010
v 0.08527 -0.20675 1.15010
v 0.01827 -0.22060 1.01510
v 0.05577 -0.28556 1.01510
v 0.08527 -0.23446 1.15010
v 0.07727 -0.22060 1.15010
v 0.05577 -0.28556 1.01510
v 0.13077 -0.28556 1.01510
v 0.10127 -0.23446 1.15010
v 0.08527 -0.23446 1.15010
v 0.13077 -0.28556 1.01510
v 0.16827 -0.22060 1.01510
v 0.10927 -0.22060 1.15010
v 0.10127 -0.23446 1.15010
v 0.10872 -0.02707 0.04000
v 0.07970 0.01288 0.04000
v 0.16482 -0.04318 0.98530
v 0.18002 -0.06411 0.98530
v 0.07970 0.01288 0.04000
v 0.03274 -0.00238 0.04000
v 0.14022 -0.05118 0.98530
v 0.16482 -0.04318 0.98530
v 0.03274 -0.00238 0.04000
v 0.03274 -0.05175 0.04000
v 0.14022 -0.07704 0.98530
v 0.14022 -0.05118 0.98530
v 0.03274 -0.05175 0.04000
v 0.07970 -0.06701 0.04000
v 0.16482 -0.08503 0.98530
v 0.14022 -0.07704 0.98530
v 0.07970 -0.06701 0.04000
v 0.10872 -0.02707 0.04000
v 0.18002 -0.06411 0.98530
v 0.16482 -0.08503 0.98530
v 0.23302 -0.06411 0.88530
v 0.19552 0.00084 0.88530
v 0.16602 -0.05025 1.02030
v 0.17402 -0.06411 1.02030
v 0.19552 0.00084 0.88530
v 0.12052 0.00084 0.88530
v 0.15002 -0.05025 1.02030
v 0.16602 -0.05025 1.02030
v 0.12052 0.00084 0.88530
v 0.08302 -0.06411 0.88530
v 0.14202 -0.06411 1.02030
v 0.15002 -0.05025 1.02030
v 0.08302 -0.06411 0.88530
v 0.12052 -0.12906 0.88530
v 0.15002 -0.07796 1.02030
v 0.14202 -0.06411 1.02030
v 0.12052 -0.12906 0.88530
v 0.19552 -0.12906 0.88530
v 0.16602 -0.07796 1.02030
v 0.15002 -0.07796 1.02030
v 0.19552 -0.12906 0.88530
v 0.23302 -0.06411 0.88530
v 0.17402 -0.06411 1.02030
v 0.16602 -0.07796 1.02030
v 0.09996 -0.00273 0.00000
v -0.02537 0.09673 0.00000
v 0.25592 0.41581 0.38364
v 0.34679 0.34370 0.38364
v 0.34679 0.34370 0.38364
v 0.25592 0.41581 0.38364
v 0.53722 0.73489 0.28320
v 0.59362 0.69014 0.28320
v 0.03349 0.09423 0.00000
v -0.09983 0.00576 0.00000
v -0.31637 0.37189 0.38364
v -0.21972 0.43603 0.38364
v -0.21972 0.43603 0.38364
v -0.31637 0.37189 0.38364
v -0.53291 0.73802 0.28320
v -0.47292 0.77783 0.28320
v -0.07927 0.06096 0.00000
v -0.03633 -0.09317 0.00000
v -0.45145 -0.18597 0.38364
v -0.48258 -0.07422 0.38364
v -0.48258 -0.07422 0.38364
v -0.45145 -0.18597 0.38364
v -0.86658 -0.27877 0.28320
v -0.88590 -0.20941 0.28320
v -0.08248 -0.05655 0.00000
v 0.07738 -0.06334 0.00000
v 0.03736 -0.48683 0.38364
v -0.07853 -0.48190 0.38364
v -0.07853 -0.48190 0.38364
v 0.03736 -0.48683 0.38364
v -0.00266 -0.91031 0.28320
v -0.07459 -0.90725 0.28320
v 0.02829 -0.09591 0.00000
v 0.08415 0.05402 0.00000
v 0.47454 -0.11491 0.38364
v 0.43405 -0.22361 0.38364
v 0.43405 -0.22361 0.38364
v 0.47454 -0.11491 0.38364
v 0.86493 -0.28383 0.28320
v 0.83980 -0.35130 0.28320
vt 0.52000 0.02000
vt 0.98000 0.02000
vt 0.98000 0.48000
vt 0.52000 0.48000
vt 0.52000 0.02000
vt 0.98000 0.02000
vt 0.98000 0.48000
vt 0.52000 0.48000
vt 0.52000 0.02000
vt 0.98000 0.02000
vt 0.98000 0.48000
vt 0.52000 0.48000
vt 0.52000 0.02000
vt 0.98000 0.02000
vt 0.98000 0.48000
vt 0.52000 0.48000
vt 0.52000 0.02000
vt 0.98000 0.02000
vt 0.98000 0.48000
vt 0.52000 0.48000
vt 0.52000 0.02000
vt 0.98000 0.02000
vt 0.98000 0.48000
vt 0.52000 0.48000
vt 0.52000 0.02000
vt 0.98000 0.02000
vt 0.98000 0.48000
vt 0.52000 0.48000
vt 0.52000 0.02000
vt 0.98000 0.02000
vt 0.98000 0.48000
vt 0.52000 0.48000
vt 0.52000 0.02000
vt 0.98000 0.02000
vt 0.98000 0.48000
vt 0.52000 0.48000
vt 0.52000 0.02000
vt 0.98000 0.02000
vt 0.98000 0.48000
vt 0.52000 0.48000
vt 0.52000 0.02000
vt 0.98000 0.02000
vt 0.98000 0.48000
vt 0.52000 0.48000
vt 0.52000 0.02000
vt 0.98000 0.02000
vt 0.98000 0.48000
vt 0.52000 0.48000
vt 0.52000 0.02000
vt 0.98000 0.02000
vt 0.98000 0.48000
vt 0.52000 0.48000
vt 0.52000 0.02000
vt 0.98000 0.02000
vt 0.98000 0.48000
vt 0.52000 0.48000
vt 0.52000 0.02000
vt 0.98000 0.02000
vt 0.98000 0.48000
vt 0.52000 0.48000
vt 0.52000 0.02000
vt 0.98000 0.02000
vt 0.98000 0.48000
vt 0.52000 0.48000
vt 0.02000 0.52000
vt 0.48000 0.52000
vt 0.48000 0.98000
vt 0.02000 0.98000
vt 0.02000 0.52000
vt 0.48000 0.52000
vt 0.48000 0.98000
vt 0.02000 0.98000
vt 0.02000 0.52000
vt 0.48000 0.52000
vt 0.48000 0.98000
vt 0.02000 0.98000
vt 0.02000 0.52000
vt 0.48000 0.52000
vt 0.48000 0.98000
vt 0.02000 0.98000
vt 0.02000 0.52000
vt 0.48000 0.52000
vt 0.48000 0.98000
vt 0.02000 0.98000
vt 0.02000 0.02000
vt 0.48000 0.02000
vt 0.48000 0.48000
vt 0.02000 0.48000
vt 0.02000 0.02000
vt 0.48000 0.02000
vt 0.48000 0.48000
vt 0.02000 0.48000
vt 0.02000 0.02000
vt 0.48000 0.02000
vt 0.48000 0.48000
vt 0.02000 0.48000
vt 0.02000 0.02000
vt 0.48000 0.02000
vt 0.48000 0.48000
vt 0.02000 0.48000
vt 0.02000 0.02000
vt 0.48000 0.02000
vt 0.48000 0.48000
vt 0.02000 0.48000
vt 0.02000 0.02000
vt 0.48000 0.02000
vt 0.48000 0.48000
vt 0.02000 0.48000
vt 0.02000 0.52000
vt 0.48000 0.52000
vt 0.48000 0.98000
vt 0.02000 0.98000
vt 0.02000 0.52000
vt 0.48000 0.52000
vt 0.48000 0.98000
vt 0.02000 0.98000
vt 0.02000 0.52000
vt 0.48000 0.52000
vt 0.48000 0.98000
vt 0.02000 0.98000
vt 0.02000 0.52000
vt 0.48000 0.52000
vt 0.48000 0.98000
vt 0.02000 0.98000
vt 0.02000 0.52000
vt 0.48000 0.52000
vt 0.48000 0.98000
vt 0.02000 0.98000
vt 0.02000 0.02000
vt 0.48000 0.02000
vt 0.48000 0.48000
vt 0.02000 0.48000
vt 0.02000 0.02000
vt 0.48000 0.02000
vt 0.48000 0.48000
vt 0.02000 0.48000
vt 0.02000 0.02000
vt 0.48000 0.02000
vt 0.48000 0.48000
vt 0.02000 0.48000
vt 0.02000 0.02000
vt 0.48000 0.02000
vt 0.48000 0.48000
vt 0.02000 0.48000
vt 0.02000 0.02000
vt 0.48000 0.02000
vt 0.48000 0.48000
vt 0.02000 0.48000
vt 0.02000 0.02000
vt 0.48000 0.02000
vt 0.48000 0.48000
vt 0.02000 0.48000
vt 0.02000 0.52000
vt 0.48000 0.52000
vt 0.48000 0.98000
vt 0.02000 0.98000
vt 0.02000 0.52000
vt 0.48000 0.52000
vt 0.48000 0.98000
vt 0.02000 0.98000
vt 0.02000 0.52000
vt 0.48000 0.52000
vt 0.48000 0.98000
vt 0.02000 0.98000
vt 0.02000 0.52000
vt 0.48000 0.52000
vt 0.48000 0.98000
vt 0.02000 0.98000
vt 0.02000 0.52000
vt 0.48000 0.52000
vt 0.48000 0.98000
vt 0.02000 0.98000
vt 0.02000 0.02000
vt 0.48000 0.02000
vt 0.48000 0.48000
vt 0.02000 0.48000
vt 0.02000 0.02000
vt 0.48000 0.02000
vt 0.48000 0.48000
vt 0.02000 0.48000
vt 0.02000 0.02000
vt 0.48000 0.02000
vt 0.48000 0.48000
vt 0.02000 0.48000
vt 0.02000 0.02000
vt 0.48000 0.02000
vt 0.48000 0.48000
vt 0.02000 0.48000
vt 0.02000 0.02000
vt 0.48000 0.02000
vt 0.48000 0.48000
vt 0.02000 0.48000
vt 0.02000 0.02000
vt 0.48000 0.02000
vt 0.48000 0.48000
vt 0.02000 0.48000
vt 0.02000 0.52000
vt 0.48000 0.52000
vt 0.48000 0.98000
vt 0.02000 0.98000
vt 0.02000 0.52000
vt 0.48000 0.52000
vt 0.48000 0.98000
vt 0.02000 0.98000
vt 0.02000 0.52000
vt 0.48000 0.52000
vt 0.48000 0.98000
vt 0.02000 0.98000
vt 0.02000 0.52000
vt 0.48000 0.52000
vt 0.48000 0.98000
vt 0.02000 0.98000
vt 0.02000 0.52000
vt 0.48000 0.52000
vt 0.48000 0.98000
vt 0.02000 0.98000
vt 0.02000 0.02000
vt 0.48000 0.02000
vt 0.48000 0.48000
vt 0.02000 0.48000
vt 0.02000 0.02000
vt 0.48000 0.02000
vt 0.48000 0.48000
vt 0.02000 0.48000
vt 0.02000 0.02000
vt 0.48000 0.02000
vt 0.48000 0.48000
vt 0.02000 0.48000
vt 0.02000 0.02000
vt 0.48000 0.02000
vt 0.48000 0.48000
vt 0.02000 0.48000
vt 0.02000 0.02000
vt 0.48000 0.02000
vt 0.48000 0.48000
vt 0.02000 0.48000
vt 0.02000 0.02000
vt 0.48000 0.02000
vt 0.48000 0.48000
vt 0.02000 0.48000
vt 0.02000 0.52000
vt 0.48000 0.52000
vt 0.48000 0.98000
vt 0.02000 0.98000
vt 0.02000 0.52000
vt 0.48000 0.52000
vt 0.48000 0.98000
vt 0.02000 0.98000
vt 0.02000 0.52000
vt 0.48000 0.52000
vt 0.48000 0.98000
vt 0.02000 0.98000
vt 0.02000 0.52000
vt 0.48000 0.52000
vt 0.48000 0.98000
vt 0.02000 0.98000
vt 0.02000 0.52000
vt 0.48000 0.52000
vt 0.48000 0.98000
vt 0.02000 0.98000
vt 0.02000 0.02000
vt 0.48000 0.02000
vt 0.48000 0.48000
vt 0.02000 0.48000
vt 0.02000 0.02000
vt 0.48000 0.02000
vt 0.48000 0.48000
vt 0.02000 0.48000
vt 0.02000 0.02000
vt 0.48000 0.02000
vt 0.48000 0.48000
vt 0.02000 0.48000
vt 0.02000 0.02000
vt 0.48000 0.02000
vt 0.48000 0.48000
vt 0.02000 0.48000
vt 0.02000 0.02000
vt 0.48000 0.02000
vt 0.48000 0.48000
vt 0.02000 0.48000
vt 0.02000 0.02000
vt 0.48000 0.02000
vt 0.48000 0.48000
vt 0.02000 0.48000
vt 0.02000 0.52000
vt 0.48000 0.52000
vt 0.48000 0.98000
vt 0.02000 0.98000
vt 0.02000 0.52000
vt 0.48000 0.52000
vt 0.48000 0.98000
vt 0.02000 0.98000
vt 0.02000 0.52000
vt 0.48000 0.52000
vt 0.48000 0.98000
vt 0.02000 0.98000
vt 0.02000 0.52000
vt 0.48000 0.52000
vt 0.48000 0.98000
vt 0.02000 0.98000
vt 0.02000 0.52000
vt 0.48000 0.52000
vt 0.48000 0.98000
vt 0.02000 0.98000
vt 0.02000 0.02000
vt 0.48000 0.02000
vt 0.48000 0.48000
vt 0.02000 0.48000
vt 0.02000 0.02000
vt 0.48000 0.02000
vt 0.48000 0.48000
vt 0.02000 0.48000
vt 0.02000 0.02000
vt 0.48000 0.02000
vt 0.48000 0.48000
vt 0.02000 0.48000
vt 0.02000 0.02000
vt 0.48000 0.02000
vt 0.48000 0.48000
vt 0.02000 0.48000
vt 0.02000 0.02000
vt 0.48000 0.02000
vt 0.48000 0.48000
vt 0.02000 0.48000
vt 0.02000 0.02000
vt 0.48000 0.02000
vt 0.48000 0.48000
vt 0.02000 0.48000
vt 0.02000 0.52000
vt 0.48000 0.52000
vt 0.48000 0.98000
vt 0.02000 0.98000
vt 0.02000 0.52000
vt 0.48000 0.52000
vt 0.48000 0.98000
vt 0.02000 0.98000
vt 0.02000 0.52000
vt 0.48000 0.52000
vt 0.48000 0.98000
vt 0.02000 0.98000
vt 0.02000 0.52000
vt 0.48000 0.52000
vt 0.48000 0.98000
vt 0.02000 0.98000
vt 0.02000 0.52000
vt 0.48000 0.52000
vt 0.48000 0.98000
vt 0.02000 0.98000
vt 0.02000 0.02000
vt 0.48000 0.02000
vt 0.48000 0.48000
vt 0.02000 0.48000
vt 0.02000 0.02000
vt 0.48000 0.02000
vt 0.48000 0.48000
vt 0.02000 0.48000
vt 0.02000 0.02000
vt 0.48000 0.02000
vt 0.48000 0.48000
vt 0.02000 0.48000
vt 0.02000 0.02000
vt 0.48000 0.02000
vt 0.48000 0.48000
vt 0.02000 0.48000
vt 0.02000 0.02000
vt 0.48000 0.02000
vt 0.48000 0.48000
vt 0.02000 0.48000
vt 0.02000 0.02000
vt 0.48000 0.02000
vt 0.48000 0.48000
vt 0.02000 0.48000
vt 0.02000 0.52000
vt 0.48000 0.52000
vt 0.48000 0.98000
vt 0.02000 0.98000
vt 0.02000 0.52000
vt 0.48000 0.52000
vt 0.48000 0.98000
vt 0.02000 0.98000
vt 0.02000 0.52000
vt 0.48000 0.52000
vt 0.48000 0.98000
vt 0.02000 0.98000
vt 0.02000 0.52000
vt 0.48000 0.52000
vt 0.48000 0.98000
vt 0.02000 0.98000
vt 0.02000 0.52000
vt 0.48000 0.52000
vt 0.48000 0.98000
vt 0.02000 0.98000
vt 0.02000 0.02000
vt 0.48000 0.02000
vt 0.48000 0.48000
vt 0.02000 0.48000
vt 0.02000 0.02000
vt 0.48000 0.02000
vt 0.48000 0.48000
vt 0.02000 0.48000
vt 0.02000 0.02000
vt 0.48000 0.02000
vt 0.48000 0.48000
vt 0.02000 0.48000
vt 0.02000 0.02000
vt 0.48000 0.02000
vt 0.48000 0.48000
vt 0.02000 0.48000
vt 0.02000 0.02000
vt 0.48000 0.02000
vt 0.48000 0.48000
vt 0.02000 0.48000
vt 0.02000 0.02000
vt 0.48000 0.02000
vt 0.48000 0.48000
vt 0.02000 0.48000
vt 0.52000 0.75000
vt 0.98000 0.75000
vt 0.98000 0.98000
vt 0.52000 0.98000
vt 0.52000 0.52000
vt 0.98000 0.52000
vt 0.98000 0.75000
vt 0.52000 0.75000
vt 0.52000 0.75000
vt 0.98000 0.75000
vt 0.98000 0.98000
vt 0.52000 0.98000
vt 0.52000 0.52000
vt 0.98000 0.52000
vt 0.98000 0.75000
vt 0.52000 0.75000
vt 0.52000 0.75000
vt 0.98000 0.75000
vt 0.98000 0.98000
vt 0.52000 0.98000
vt 0.52000 0.52000
vt 0.98000 0.52000
vt 0.98000 0.75000
vt 0.52000 0.75000
vt 0.52000 0.75000
vt 0.98000 0.75000
vt 0.98000 0.98000
vt 0.52000 0.98000
vt 0.52000 0.52000
vt 0.98000 0.52000
vt 0.98000 0.75000
vt 0.52000 0.75000
vt 0.52000 0.75000
vt 0.98000 0.75000
vt 0.98000 0.98000
vt 0.52000 0.98000
vt 0.52000 0.52000
vt 0.98000 0.52000
vt 0.98000 0.75000
vt 0.52000 0.75000
vn 0.92388 0.38268 0.00000
vn 0.92388 0.38268 0.00000
vn 0.92388 0.38268 0.00000
vn 0.92388 0.38268 0.00000
vn 0.38268 0.92388 0.00000
vn 0.38268 0.92388 0.00000
vn 0.38268 0.92388 0.00000
vn 0.38268 0.92388 0.00000
vn -0.38268 0.92388 0.00000
vn -0.38268 0.92388 0.00000
vn -0.38268 0.92388 0.00000
vn -0.38268 0.92388 0.00000
vn -0.92388 0.38268 0.00000
vn -0.92388 0.38268 0.00000
vn -0.92388 0.38268 0.00000
vn -0.92388 0.38268 0.00000
vn -0.92388 -0.38268 0.00000
vn -0.92388 -0.38268 0.00000
vn -0.92388 -0.38268 0.00000
vn -0.92388 -0.38268 0.00000
vn -0.38268 -0.92388 0.00000
vn -0.38268 -0.92388 0.00000
vn -0.38268 -0.92388 0.00000
vn -0.38268 -0.92388 0.00000
vn 0.38268 -0.92388 0.00000
vn 0.38268 -0.92388 0.00000
vn 0.38268 -0.92388 0.00000
vn 0.38268 -0.92388 0.00000
vn 0.92388 -0.38268 0.00000
vn 0.92388 -0.38268 0.00000
vn 0.92388 -0.38268 0.00000
vn 0.92388 -0.38268 0.00000
vn 0.00000 0.00000 1.00000
vn 0.00000 0.00000 1.00000
vn 0.00000 0.00000 1.00000
vn 0.00000 0.00000 1.00000
vn 0.00000 0.00000 1.00000
vn 0.00000 0.00000 1.00000
vn 0.00000 0.00000 1.00000
vn 0.00000 0.00000 1.00000
vn 0.00000 0.00000 1.00000
vn 0.00000 0.00000 1.00000
vn 0.00000 0.00000 1.00000
vn 0.00000 0.00000 1.00000
vn 0.00000 0.00000 1.00000
vn 0.00000 0.00000 1.00000
vn 0.00000 0.00000 1.00000
vn 0.00000 0.00000 1.00000
vn 0.00000 0.00000 1.00000
vn 0.00000 0.00000 1.00000
vn 0.00000 0.00000 1.00000
vn 0.00000 0.00000 1.00000
vn 0.00000 0.00000 1.00000
vn 0.00000 0.00000 1.00000
vn 0.00000 0.00000 1.00000
vn 0.00000 0.00000 1.00000
vn 0.00000 0.00000 1.00000
vn 0.00000 0.00000 1.00000
vn 0.00000 0.00000 1.00000
vn 0.00000 0.00000 1.00000
vn 0.00000 0.00000 1.00000
vn 0.00000 0.00000 1.00000
vn 0.00000 0.00000 1.00000
vn 0.00000 0.00000 1.00000
vn 0.80902 0.58779 0.00000
vn 0.80902 0.58779 0.00000
vn 0.80902 0.58779 0.00000
vn 0.80902 0.58779 0.00000
vn -0.30902 0.95106 0.00000
vn -0.30902 0.95106 0.00000
vn -0.30902 0.95106 0.00000
vn -0.30902 0.95106 0.00000
vn -1.00000 0.00000 0.00000
vn -1.00000 0.00000 0.00000
vn -1.00000 0.00000 0.00000
vn -1.00000 0.00000 0.00000
vn -0.30902 -0.95106 0.00000
vn -0.30902 -0.95106 0.00000
vn -0.30902 -0.95106 0.00000
vn -0.30902 -0.95106 0.00000
vn 0.80902 -0.58779 0.00000
vn 0.80902 -0.58779 0.00000
vn 0.80902 -0.58779 0.00000
vn 0.80902 -0.58779 0.00000
vn 0.86603 0.50000 0.00000
vn 0.86603 0.50000 0.00000
vn 0.86603 0.50000 0.00000
vn 0.86603 0.50000 0.00000
vn 0.00000 1.00000 0.00000
vn 0.00000 1.00000 0.00000
vn 0.00000 1.00000 0.00000
vn 0.00000 1.00000 0.00000
vn -0.86603 0.50000 0.00000
vn -0.86603 0.50000 0.00000
vn -0.86603 0.50000 0.00000
vn -0.86603 0.50000 0.00000
vn -0.86603 -0.50000 0.00000
vn -0.86603 -0.50000 0.00000
vn -0.86603 -0.50000 0.00000
vn -0.86603 -0.50000 0.00000
vn -0.00000 -1.00000 0.00000
vn -0.00000 -1.00000 0.00000
vn -0.00000 -1.00000 0.00000
vn -0.00000 -1.00000 0.00000
vn 0.86603 -0.50000 0.00000
vn 0.86603 -0.50000 0.00000
vn 0.86603 -0.50000 0.00000
vn 0.86603 -0.50000 0.00000
vn 0.80902 0.58779 0.00000
vn 0.80902 0.58779 0.00000
vn 0.80902 0.58779 0.00000
vn 0.80902 0.58779 0.00000
vn -0.30902 0.95106 0.00000
vn -0.30902 0.95106 0.00000
vn -0.30902 0.95106 0.00000
vn -0.30902 0.95106 0.00000
vn -1.00000 0.00000 0.00000
vn -1.00000 0.00000 0.00000
vn -1.00000 0.00000 0.00000
vn -1.00000 0.00000 0.00000
vn -0.30902 -0.95106 0.00000
vn -0.30902 -0.95106 0.00000
vn -0.30902 -0.95106 0.00000
vn -0.30902 -0.95106 0.00000
vn 0.80902 -0.58779 0.00000
vn 0.80902 -0.58779 0.00000
vn 0.80902 -0.58779 0.00000
vn 0.80902 -0.58779 0.00000
vn 0.86603 0.50000 0.00000
vn 0.86603 0.50000 0.00000
vn 0.86603 0.50000 0.00000
vn 0.86603 0.50000 0.00000
vn 0.00000 1.00000 0.00000
vn 0.00000 1.00000 0.00000
vn 0.00000 1.00000 0.00000
vn 0.00000 1.00000 0.00000
vn -0.86603 0.50000 0.00000
vn -0.86603 0.50000 0.00000
vn -0.86603 0.50000 0.00000
vn -0.86603 0.50000 0.00000
vn -0.86603 -0.50000 0.00000
vn -0.86603 -0.50000 0.00000
vn -0.86603 -0.50000 0.00000
vn -0.86603 -0.50000 0.00000
vn -0.00000 -1.00000 0.00000
vn -0.00000 -1.00000 0.00000
vn -0.00000 -1.00000 0.00000
vn -0.00000 -1.00000 0.00000
vn 0.86603 -0.50000 0.00000
vn 0.86603 -0.50000 0.00000
vn 0.86603 -0.50000 0.00000
vn 0.86603 -0.50000 0.00000
vn 0.80902 0.58779 0.00000
vn 0.80902 0.58779 0.00000
vn 0.80902 0.58779 0.00000
vn 0.80902 0.58779 0.00000
vn -0.30902 0.95106 0.00000
vn -0.30902 0.95106 0.00000
vn -0.30902 0.95106 0.00000
vn -0.30902 0.95106 0.00000
vn -1.00000 0.00000 0.00000
vn -1.00000 0.00000 0.00000
vn -1.00000 0.00000 0.00000
vn -1.00000 0.00000 0.00000
vn -0.30902 -0.95106 0.00000
vn -0.30902 -0.95106 0.00000
vn -0.30902 -0.95106 0.00000
vn -0.30902 -0.95106 0.00000
vn 0.80902 -0.58779 0.00000
vn 0.80902 -0.58779 0.00000
vn 0.80902 -0.58779 0.00000
vn 0.80902 -0.58779 0.00000
vn 0.86603 0.50000 0.00000
vn 0.86603 0.50000 0.00000
vn 0.86603 0.50000 0.00000
vn 0.86603 0.50000 0.00000
vn 0.00000 1.00000 0.00000
vn 0.00000 1.00000 0.00000
vn 0.00000 1.00000 0.00000
vn 0.00000 1.00000 0.00000
vn -0.86603 0.50000 0.00000
vn -0.86603 0.50000 0.00000
vn -0.86603 0.50000 0.00000
vn -0.86603 0.50000 0.00000
vn -0.86603 -0.50000 0.00000
vn -0.86603 -0.50000 0.00000
vn -0.86603 -0.50000 0.00000
vn -0.86603 -0.50000 0.00000
vn -0.00000 -1.00000 0.00000
vn -0.00000 -1.00000 0.00000
vn -0.00000 -1.00000 0.00000
vn -0.00000 -1.00000 0.00000
vn 0.86603 -0.50000 0.00000
vn 0.86603 -0.50000 0.00000
vn 0.86603 -0.50000 0.00000
vn 0.86603 -0.50000 0.00000
vn 0.80902 0.58779 0.00000
vn 0.80902 0.58779 0.00000
vn 0.80902 0.58779 0.00000
vn 0.80902 0.58779 0.00000
vn -0.30902 0.95106 0.00000
vn -0.30902 0.95106 0.00000
vn -0.30902 0.95106 0.00000
vn -0.30902 0.95106 0.00000
vn -1.00000 0.00000 0.00000
vn -1.00000 0.00000 0.00000
vn -1.00000 0.00000 0.00000
vn -1.00000 0.00000 0.00000
vn -0.30902 -0.95106 0.00000
vn -0.30902 -0.95106 0.00000
vn -0.30902 -0.95106 0.00000
vn -0.30902 -0.95106 0.00000
vn 0.80902 -0.58779 0.00000
vn 0.80902 -0.58779 0.00000
vn 0.80902 -0.58779 0.00000
vn 0.80902 -0.58779 0.00000
vn 0.86603 0.50000 0.00000
vn 0.86603 0.50000 0.00000
vn 0.86603 0.50000 0.00000
vn 0.86603 0.50000 0.00000
vn 0.00000 1.00000 0.00000
vn 0.00000 1.00000 0.00000
vn 0.00000 1.00000 0.00000
vn 0.00000 1.00000 0.00000
vn -0.86603 0.50000 0.00000
vn -0.86603 0.50000 0.00000
vn -0.86603 0.50000 0.00000
vn -0.86603 0.50000 0.00000
vn -0.86603 -0.50000 0.00000
vn -0.86603 -0.50000 0.00000
vn -0.86603 -0.50000 0.00000
vn -0.86603 -0.50000 0.00000
vn -0.00000 -1.00000 0.00000
vn -0.00000 -1.00000 0.00000
vn -0.00000 -1.00000 0.00000
vn -0.00000 -1.00000 0.00000
vn 0.86603 -0.50000 0.00000
vn 0.86603 -0.50000 0.00000
vn 0.86603 -0.50000 0.00000
vn 0.86603 -0.50000 0.00000
vn 0.80902 0.58779 0.00000
vn 0.80902 0.58779 0.00000
vn 0.80902 0.58779 0.00000
vn 0.80902 0.58779 0.00000
vn -0.30902 0.95106 0.00000
vn -0.30902 0.95106 0.00000
vn -0.30902 0.95106 0.00000
vn -0.30902 0.95106 0.00000
vn -1.00000 0.00000 0.00000
vn -1.00000 0.00000 0.00000
vn -1.00000 0.00000 0.00000
vn -1.00000 0.00000 0.00000
vn -0.30902 -0.95106 0.00000
vn -0.30902 -0.95106 0.00000
vn -0.30902 -0.95106 0.00000
vn -0.30902 -0.95106 0.00000
vn 0.80902 -0.58779 0.00000
vn 0.80902 -0.58779 0.00000
vn 0.80902 -0.58779 0.00000
vn 0.80902 -0.58779 0.00000
vn 0.86603 0.50000 0.00000
vn 0.86603 0.50000 0.00000
vn 0.86603 0.50000 0.00000
vn 0.86603 0.50000 0.00000
vn 0.00000 1.00000 0.00000
vn 0.00000 1.00000 0.00000
vn 0.00000 1.00000 0.00000
vn 0.00000 1.00000 0.00000
vn -0.86603 0.50000 0.00000
vn -0.86603 0.50000 0.00000
vn -0.86603 0.50000 0.00000
vn -0.86603 0.50000 0.00000
vn -0.86603 -0.50000 0.00000
vn -0.86603 -0.50000 0.00000
vn -0.86603 -0.50000 0.00000
vn -0.86603 -0.50000 0.00000
vn -0.00000 -1.00000 0.00000
vn -0.00000 -1.00000 0.00000
vn -0.00000 -1.00000 0.00000
vn -0.00000 -1.00000 0.00000
vn 0.86603 -0.50000 0.00000
vn 0.86603 -0.50000 0.00000
vn 0.86603 -0.50000 0.00000
vn 0.86603 -0.50000 0.00000
vn 0.80902 0.58779 0.00000
vn 0.80902 0.58779 0.00000
vn 0.80902 0.58779 0.00000
vn 0.80902 0.58779 0.00000
vn -0.30902 0.95106 0.00000
vn -0.30902 0.95106 0.00000
vn -0.30902 0.95106 0.00000
vn -0.30902 0.95106 0.00000
vn -1.00000 0.00000 0.00000
vn -1.00000 0.00000 0.00000
vn -1.00000 0.00000 0.00000
vn -1.00000 0.00000 0.00000
vn -0.30902 -0.95106 0.00000
vn -0.30902 -0.95106 0.00000
vn -0.30902 -0.95106 0.00000
vn -0.30902 -0.95106 0.00000
vn 0.80902 -0.58779 0.00000
vn 0.80902 -0.58779 0.00000
vn 0.80902 -0.58779 0.00000
vn 0.80902 -0.58779 0.00000
vn 0.86603 0.50000 0.00000
vn 0.86603 0.50000 0.00000
vn 0.86603 0.50000 0.00000
vn 0.86603 0.50000 0.00000
vn 0.00000 1.00000 0.00000
vn 0.00000 1.00000 0.00000
vn 0.00000 1.00000 0.00000
vn 0.00000 1.00000 0.00000
vn -0.86603 0.50000 0.00000
vn -0.86603 0.50000 0.00000
vn -0.86603 0.50000 0.00000
vn -0.86603 0.50000 0.00000
vn -0.86603 -0.50000 0.00000
vn -0.86603 -0.50000 0.00000
vn -0.86603 -0.50000 0.00000
vn -0.86603 -0.50000 0.00000
vn -0.00000 -1.00000 0.00000
vn -0.00000 -1.00000 0.00000
vn -0.00000 -1.00000 0.00000
vn -0.00000 -1.00000 0.00000
vn 0.86603 -0.50000 0.00000
vn 0.86603 -0.50000 0.00000
vn 0.86603 -0.50000 0.00000
vn 0.86603 -0.50000 0.00000
vn 0.80902 0.58779 0.00000
vn 0.80902 0.58779 0.00000
vn 0.80902 0.58779 0.00000
vn 0.80902 0.58779 0.00000
vn -0.30902 0.95106 0.00000
vn -0.30902 0.95106 0.00000
vn -0.30902 0.95106 0.00000
vn -0.30902 0.95106 0.00000
vn -1.00000 0.00000 0.00000
vn -1.00000 0.00000 0.00000
vn -1.00000 0.00000 0.00000
vn -1.00000 0.00000 0.00000
vn -0.30902 -0.95106 0.00000
vn -0.30902 -0.95106 0.00000
vn -0.30902 -0.95106 0.00000
vn -0.30902 -0.95106 0.00000
vn 0.80902 -0.58779 0.00000
vn 0.80902 -0.58779 0.00000
vn 0.80902 -0.58779 0.00000
vn 0.80902 -0.58779 0.00000
vn 0.86603 0.50000 0.00000
vn 0.86603 0.50000 0.00000
vn 0.86603 0.50000 0.00000
vn 0.86603 0.50000 0.00000
vn 0.00000 1.00000 0.00000
vn 0.00000 1.00000 0.00000
vn 0.00000 1.00000 0.00000
vn 0.00000 1.00000 0.00000
vn -0.86603 0.50000 0.00000
vn -0.86603 0.50000 0.00000
vn -0.86603 0.50000 0.00000
vn -0.86603 0.50000 0.00000
vn -0.86603 -0.50000 0.00000
vn -0.86603 -0.50000 0.00000
vn -0.86603 -0.50000 0.00000
vn -0.86603 -0.50000 0.00000
vn -0.00000 -1.00000 0.00000
vn -0.00000 -1.00000 0.00000
vn -0.00000 -1.00000 0.00000
vn -0.00000 -1.00000 0.00000
vn 0.86603 -0.50000 0.00000
vn 0.86603 -0.50000 0.00000
vn 0.86603 -0.50000 0.00000
vn 0.86603 -0.50000 0.00000
vn 0.80902 0.58779 0.00000
vn 0.80902 0.58779 0.00000
vn 0.80902 0.58779 0.00000
vn 0.80902 0.58779 0.00000
vn -0.30902 0.95106 0.00000
vn -0.30902 0.95106 0.00000
vn -0.30902 0.95106 0.00000
vn -0.30902 0.95106 0.00000
vn -1.00000 0.00000 0.00000
vn -1.00000 0.00000 0.00000
vn -1.00000 0.00000 0.00000
vn -1.00000 0.00000 0.00000
vn -0.30902 -0.95106 0.00000
vn -0.30902 -0.95106 0.00000
vn -0.30902 -0.95106 0.00000
vn -0.30902 -0.95106 0.00000
vn 0.80902 -0.58779 0.00000
vn 0.80902 -0.58779 0.00000
vn 0.80902 -0.58779 0.00000
vn 0.80902 -0.58779 0.00000
vn 0.86603 0.50000 0.00000
vn 0.86603 0.50000 0.00000
vn 0.86603 0.50000 0.00000
vn 0.86603 0.50000 0.00000
vn 0.00000 1.00000 0.00000
vn 0.00000 1.00000 0.00000
vn 0.00000 1.00000 0.00000
vn 0.00000 1.00000 0.00000
vn -0.86603 0.50000 0.00000
vn -0.86603 0.50000 0.00000
vn -0.86603 0.50000 0.00000
vn -0.86603 0.50000 0.00000
vn -0.86603 -0.50000 0.00000
vn -0.86603 -0.50000 0.00000
vn -0.86603 -0.50000 0.00000
vn -0.86603 -0.50000 0.00000
vn -0.00000 -1.00000 0.00000
vn -0.00000 -1.00000 0.00000
vn -0.00000 -1.00000 0.00000
vn -0.00000 -1.00000 0.00000
vn 0.86603 -0.50000 0.00000
vn 0.86603 -0.50000 0.00000
vn 0.86603 -0.50000 0.00000
vn 0.86603 -0.50000 0.00000
vn -0.27416 0.21756 0.87000
vn -0.27416 0.21756 0.87000
vn -0.27416 0.21756 0.87000
vn -0.27416 0.21756 0.87000
vn -0.27416 0.21756 0.87000
vn -0.27416 0.21756 0.87000
vn -0.27416 0.21756 0.87000
vn -0.27416 0.21756 0.87000
vn -0.29164 -0.19352 0.87000
vn -0.29164 -0.19352 0.87000
vn -0.29164 -0.19352 0.87000
vn -0.29164 -0.19352 0.87000
vn -0.29164 -0.19352 0.87000
vn -0.29164 -0.19352 0.87000
vn -0.29164 -0.19352 0.87000
vn -0.29164 -0.19352 0.87000
vn 0.09392 -0.33716 0.87000
vn 0.09392 -0.33716 0.87000
vn 0.09392 -0.33716 0.87000
vn 0.09392 -0.33716 0.87000
vn 0.09392 -0.33716 0.87000
vn 0.09392 -0.33716 0.87000
vn 0.09392 -0.33716 0.87000
vn 0.09392 -0.33716 0.87000
vn 0.34968 -0.01486 0.87000
vn 0.34968 -0.01486 0.87000
vn 0.34968 -0.01486 0.87000
vn 0.34968 -0.01486 0.87000
vn 0.34968 -0.01486 0.87000
vn 0.34968 -0.01486 0.87000
vn 0.34968 -0.01486 0.87000
vn 0.34968 -0.01486 0.87000
vn 0.12219 0.32798 0.87000
vn 0.12219 0.32798 0.87000
vn 0.12219 0.32798 0.87000
vn 0.12219 0.32798 0.87000
vn 0.12219 0.32798 0.87000
vn 0.12219 0.32798 0.87000
vn 0.12219 0.32798 0.87000
vn 0.12219 0.32798 0.87000
f 1/1/1 2/2/2 3/3/3
f 1/1/1 3/3/3 4/4/4
f 5/5/5 6/6/6 7/7/7
f 5/5/5 7/7/7 8/8/8
f 9/9/9 10/10/10 11/11/11
f 9/9/9 11/11/11 12/12/12
f 13/13/13 14/14/14 15/15/15
f 13/13/13 15/15/15 16/16/16
f 17/17/17 18/18/18 19/19/19
f 17/17/17 19/19/19 20/20/20
f 21/21/21 22/22/22 23/23/23
f 21/21/21 23/23/23 24/24/24
f 25/25/25 26/26/26 27/27/27
f 25/25/25 27/27/27 28/28/28
f 29/29/29 30/30/30 31/31/31
f 29/29/29 31/31/31 32/32/32
f 33/33/33 34/34/34 35/35/35
f 33/33/33 35/35/35 36/36/36
f 37/37/37 38/38/38 39/39/39
f 37/37/37 39/39/39 40/40/40
f 41/41/41 42/42/42 43/43/43
f 41/41/41 43/43/43 44/44/44
f 45/45/45 46/46/46 47/47/47
f 45/45/45 47/47/47 48/48/48
f 49/49/49 50/50/50 51/51/51
f 49/49/49 51/51/51 52/52/52
f 53/53/53 54/54/54 55/55/55
f 53/53/53 55/55/55 56/56/56
f 57/57/57 58/58/58 59/59/59
f 57/57/57 59/59/59 60/60/60
f 61/61/61 62/62/62 63/63/63
f 61/61/61 63/63/63 64/64/64
f 65/65/65 66/66/66 67/67/67
f 65/65/65 67/67/67 68/68/68
f 69/69/69 70/70/70 71/71/71
f 69/69/69 71/71/71 72/72/72
f 73/73/73 74/74/74 75/75/75
f 73/73/73 75/75/75 76/76/76
f 77/77/77 78/78/78 79/79/79
f 77/77/77 79/79/79 80/80/80
f 81/81/81 82/82/82 83/83/83
f 81/81/81 83/83/83 84/84/84
f 85/85/85 86/86/86 87/87/87
f 85/85/85 87/87/87 88/88/88
f 89/89/89 90/90/90 91/91/91
f 89/89/89 91/91/91 92/92/92
f 93/93/93 94/94/94 95/95/95
f 93/93/93 95/95/95 96/96/96
f 97/97/97 98/98/98 99/99/99
f 97/97/97 99/99/99 100/100/100
f 101/101/101 102/102/102 103/103/103
f 101/101/101 103/103/103 104/104/104
f 105/105/105 106/106/106 107/107/107
f 105/105/105 107/107/107 108/108/108
f 109/109/109 110/110/110 111/111/111
f 109/109/109 111/111/111 112/112/112
f 113/113/113 114/114/114 115/115/115
f 113/113/113 115/115/115 116/116/116
f 117/117/117 118/118/118 119/119/119
f 117/117/117 119/119/119 120/120/120
f 121/121/121 122/122/122 123/123/123
f 121/121/121 123/123/123 124/124/124
f 125/125/125 126/126/126 127/127/127
f 125/125/125 127/127/127 128/128/128
f 129/129/129 130/130/130 131/131/131
f 129/129/129 131/131/131 132/132/132
f 133/133/133 134/134/134 135/135/135
f 133/133/133 135/135/135 136/136/136
f 137/137/137 138/138/138 139/139/139
f 137/137/137 139/139/139 140/140/140
f 141/141/141 142/142/142 143/143/143
f 141/141/141 143/143/143 144/144/144
f 145/145/145 146/146/146 147/147/147
f 145/145/145 147/147/147 148/148/148
f 149/149/149 150/150/150 151/151/151
f 149/149/149 151/151/151 152/152/152
f 153/153/153 154/154/154 155/155/155
f 153/153/153 155/155/155 156/156/156
f 157/157/157 158/158/158 159/159/159
f 157/157/157 159/159/159 160/160/160
f 161/161/161 162/162/162 163/163/163
f 161/161/161 163/163/163 164/164/164
f 165/165/165 166/166/166 167/167/167
f 165/165/165 167/167/167 168/168/168
f 169/169/169 170/170/170 171/171/171
f 169/169/169 171/171/171 172/172/172
f 173/173/173 174/174/174 175/175/175
f 173/173/173 175/175/175 176/176/176
f 177/177/177 178/178/178 179/179/179
f 177/177/177 179/179/179 180/180/180
f 181/181/181 182/182/182 183/183/183
f 181/181/181 183/183/183 184/184/184
f 185/185/185 186/186/186 187/187/187
f 185/185/185 187/187/187 188/188/188
f 189/189/189 190/190/190 191/191/191
f 189/189/189 191/191/191 192/192/192
f 193/193/193 194/194/194 195/195/195
f 193/193/193 195/195/195 196/196/196
f 197/197/197 198/198/198 199/199/199
f 197/197/197 199/199/199 200/200/200
f 201/201/201 202/202/202 203/203/203
f 201/201/201 203/203/203 204/204/204
f 205/205/205 206/206/206 207/207/207
f 205/205/205 207/207/207 208/208/208
f 209/209/209 210/210/210 211/211/211
f 209/209/209 211/211/211 212/212/212
f 213/213/213 214/214/214 215/215/215
f 213/213/213 215/215/215 216/216/216
f 217/217/217 218/218/218 219/219/219
f 217/217/217 219/219/219 220/220/220
f 221/221/221 222/222/222 223/223/223
f 221/221/221 223/223/223 224/224/224
f 225/225/225 226/226/226 227/227/227
f 225/225/225 227/227/227 228/228/228
f 229/229/229 230/230/230 231/231/231
f 229/229/229 231/231/231 232/232/232
f 233/233/233 234/234/234 235/235/235
f 233/233/233 235/235/235 236/236/236
f 237/237/237 238/238/238 239/239/239
f 237/237/237 239/239/239 240/240/240
f 241/241/241 242/242/242 243/243/243
f 241/241/241 243/243/243 244/244/244
f 245/245/245 246/246/246 247/247/247
f 245/245/245 247/247/247 248/248/248
f 249/249/249 250/250/250 251/251/251
f 249/249/249 251/251/251 252/252/252
f 253/253/253 254/254/254 255/255/255
f 253/253/253 255/255/255 256/256/256
f 257/257/257 258/258/258 259/259/259
f 257/257/257 259/259/259 260/260/260
f 261/261/261 262/262/262 263/263/263
f 261/261/261 263/263/263 264/264/264
f 265/265/265 266/266/266 267/267/267
f 265/265/265 267/267/267 268/268/268
f 269/269/269 270/270/270 271/271/271
f 269/269/269 271/271/271 272/272/272
f 273/273/273 274/274/274 275/275/275
f 273/273/273 275/275/275 276/276/276
f 277/277/277 278/278/278 279/279/279
f 277/277/277 279/279/279 280/280/280
f 281/281/281 282/282/282 283/283/283
f 281/281/281 283/283/283 284/284/284
f 285/285/285 286/286/286 287/287/287
f 285/285/285 287/287/287 288/288/288
f 289/289/289 290/290/290 291/291/291
f 289/289/289 291/291/291 292/292/292
f 293/293/293 294/294/294 295/295/295
f 293/293/293 295/295/295 296/296/296
f 297/297/297 298/298/298 299/299/299
f 297/297/297 299/299/299 300/300/300
f 301/301/301 302/302/302 303/303/303
f 301/301/301 303/303/303 304/304/304
f 305/305/305 306/306/306 307/307/307
f 305/305/305 307/307/307 308/308/308
f 309/309/309 310/310/310 311/311/311
f 309/309/309 311/311/311 312/312/312
f 313/313/313 314/314/314 315/315/315
f 313/313/313 315/315/315 316/316/316
f 317/317/317 318/318/318 319/319/319
f 317/317/317 319/319/319 320/320/320
f 321/321/321 322/322/322 323/323/323
f 321/321/321 323/323/323 324/324/324
f 325/325/325 326/326/326 327/327/327
f 325/325/325 327/327/327 328/328/328
f 329/329/329 330/330/330 331/331/331
f 329/329/329 331/331/331 332/332/332
f 333/333/333 334/334/334 335/335/335
f 333/333/333 335/335/335 336/336/336
f 337/337/337 338/338/338 339/339/339
f 337/337/337 339/339/339 340/340/340
f 341/341/341 342/342/342 343/343/343
f 341/341/341 343/343/343 344/344/344
f 345/345/345 346/346/346 347/347/347
f 345/345/345 347/347/347 348/348/348
f 349/349/349 350/350/350 351/351/351
f 349/349/349 351/351/351 352/352/352
f 353/353/353 354/354/354 355/355/355
f 353/353/353 355/355/355 356/356/356
f 357/357/357 358/358/358 359/359/359
f 357/357/357 359/359/359 360/360/360
f 361/361/361 362/362/362 363/363/363
f 361/361/361 363/363/363 364/364/364
f 365/365/365 366/366/366 367/367/367
f 365/365/365 367/367/367 368/368/368
f 369/369/369 370/370/370 371/371/371
f 369/369/369 371/371/371 372/372/372
f 373/373/373 374/374/374 375/375/375
f 373/373/373 375/375/375 376/376/376
f 377/377/377 378/378/378 379/379/379
f 377/377/377 379/379/379 380/380/380
f 381/381/381 382/382/382 383/383/383
f 381/381/381 383/383/383 384/384/384
f 385/385/385 386/386/386 387/387/387
f 385/385/385 387/387/387 388/388/388
f 389/389/389 390/390/390 391/391/391
f 389/389/389 391/391/391 392/392/392
f 393/393/393 394/394/394 395/395/395
f 393/393/393 395/395/395 396/396/396
f 397/397/397 398/398/398 399/399/399
f 397/397/397 399/399/399 400/400/400
f 401/401/401 402/402/402 403/403/403
f 401/401/401 403/403/403 404/404/404
f 405/405/405 406/406/406 407/407/407
f 405/405/405 407/407/407 408/408/408
f 409/409/409 410/410/410 411/411/411
f 409/409/409 411/411/411 412/412/412
f 413/413/413 414/414/414 415/415/415
f 413/413/413 415/415/415 416/416/416
f 417/417/417 418/418/418 419/419/419
f 417/417/417 419/419/419 420/420/420
f 421/421/421 422/422/422 423/423/423
f 421/421/421 423/423/423 424/424/424
f 425/425/425 426/426/426 427/427/427
f 425/425/425 427/427/427 428/428/428
f 429/429/429 430/430/430 431/431/431
f 429/429/429 431/431/431 432/432/432
f 433/433/433 434/434/434 435/435/435
f 433/433/433 435/435/435 436/436/436
f 437/437/437 438/438/438 439/439/439
f 437/437/437 439/439/439 440/440/440
f 441/441/441 442/442/442 443/443/443
f 441/441/441 443/443/443 444/444/444
f 445/445/445 446/446/446 447/447/447
f 445/445/445 447/447/447 448/448/448
f 449/449/449 450/450/450 451/451/451
f 449/449/449 451/451/451 452/452/452
f 453/453/453 454/454/454 455/455/455
f 453/453/453 455/455/455 456/456/456
