mtllib whitehorn_glacier.mtl
usemtl whitehorn_glacier
v 1.80000 0.00000 0.00000
v 1.12228 1.40730 0.00000
v 0.12470 0.15637 3.00000
v 0.20000 0.00000 3.00000
v 1.12228 1.40730 0.00000
v -0.40054 1.75487 0.00000
v -0.04450 0.19499 3.00000
v 0.12470 0.15637 3.00000
v -0.40054 1.75487 0.00000
v -1.62174 0.78099 0.00000
v -0.18019 0.08678 3.00000
v -0.04450 0.19499 3.00000
v -1.62174 0.78099 0.00000
v -1.62174 -0.78099 0.00000
v -0.18019 -0.08678 3.00000
v -0.18019 0.08678 3.00000
v -1.62174 -0.78099 0.00000
v -0.40054 -1.75487 0.00000
v -0.04450 -0.19499 3.00000
v -0.18019 -0.08678 3.00000
v -0.40054 -1.75487 0.00000
v 1.12228 -1.40730 0.00000
v 0.12470 -0.15637 3.00000
v -0.04450 -0.19499 3.00000
v 1.12228 -1.40730 0.00000
v 1.80000 -0.00000 0.00000
v 0.20000 -0.00000 3.00000
v 0.12470 -0.15637 3.00000
v 2.80000 0.50000 0.00000
v 2.31054 1.51638 0.00000
v 1.62470 0.65637 2.20000
v 1.70000 0.50000 2.20000
v 2.31054 1.51638 0.00000
v 1.21072 1.76741 0.00000
v 1.45550 0.69499 2.20000
v 1.62470 0.65637 2.20000
v 1.21072 1.76741 0.00000
v 0.32874 1.06405 0.00000
v 1.31981 0.58678 2.20000
v 1.45550 0.69499 2.20000
v 0.32874 1.06405 0.00000
v 0.32874 -0.06405 0.00000
v 1.31981 0.41322 2.20000
v 1.31981 0.58678 2.20000
v 0.32874 -0.06405 0.00000
v 1.21072 -0.76741 0.00000
v 1.45550 0.30501 2.20000
v 1.31981 0.41322 2.20000
v 1.21072 -0.76741 0.00000
v 2.31054 -0.51638 0.00000
v 1.62470 0.34363 2.20000
v 1.45550 0.30501 2.20000
v 2.31054 -0.51638 0.00000
v 2.80000 0.50000 0.00000
v 1.70000 0.50000 2.20000
v 1.62470 0.34363 2.20000
v 0.00000 0.30000 0.00000
v -0.52711 1.39456 0.00000
v -1.27530 0.45637 2.50000
v -1.20000 0.30000 2.50000
v -0.52711 1.39456 0.00000
v -1.71153 1.66490 0.00000
v -1.44450 0.49499 2.50000
v -1.27530 0.45637 2.50000
v -1.71153 1.66490 0.00000
v -2.66136 0.90744 0.00000
v -1.58019 0.38678 2.50000
v -1.44450 0.49499 2.50000
v -2.66136 0.90744 0.00000
v -2.66136 -0.30744 0.00000
v -1.58019 0.21322 2.50000
v -1.58019 0.38678 2.50000
v -2.66136 -0.30744 0.00000
v -1.71153 -1.06490 0.00000
v -1.44450 0.10501 2.50000
v -1.58019 0.21322 2.50000
v -1.71153 -1.06490 0.00000
v -0.52711 -0.79456 0.00000
v -1.27530 0.14363 2.50000
v -1.44450 0.10501 2.50000
v -0.52711 -0.79456 0.00000
v 0.00000 0.30000 0.00000
v -1.20000 0.30000 2.50000
v -1.27530 0.14363 2.50000
vt 0.00000 1.00000
vt 1.00000 1.00000
vt 1.00000 0.00000
vt 0.00000 0.00000
vt 0.00000 1.00000
vt 1.00000 1.00000
vt 1.00000 0.00000
vt 0.00000 0.00000
vt 0.00000 1.00000
vt 1.00000 1.00000
vt 1.00000 0.00000
vt 0.00000 0.00000
vt 0.00000 1.00000
vt 1.00000 1.00000
vt 1.00000 0.00000
vt 0.00000 0.00000
vt 0.00000 1.00000
vt 1.00000 1.00000
vt 1.00000 0.00000
vt 0.00000 0.00000
vt 0.00000 1.00000
vt 1.00000 1.00000
vt 1.00000 0.00000
vt 0.00000 0.00000
vt 0.00000 1.00000
vt 1.00000 1.00000
vt 1.00000 0.00000
vt 0.00000 0.00000
vt 0.00000 1.00000
vt 1.00000 1.00000
vt 1.00000 0.00000
vt 0.00000 0.00000
vt 0.00000 1.00000
vt 1.00000 1.00000
vt 1.00000 0.00000
vt 0.00000 0.00000
vt 0.00000 1.00000
vt 1.00000 1.00000
vt 1.00000 0.00000
vt 0.00000 0.00000
vt 0.00000 1.00000
vt 1.00000 1.00000
vt 1.00000 0.00000
vt 0.00000 0.00000
vt 0.00000 1.00000
vt 1.00000 1.00000
vt 1.00000 0.00000
vt 0.00000 0.00000
vt 0.00000 1.00000
vt 1.00000 1.00000
vt 1.00000 0.00000
vt 0.00000 0.00000
vt 0.00000 1.00000
vt 1.00000 1.00000
vt 1.00000 0.00000
vt 0.00000 0.00000
vt 0.00000 1.00000
vt 1.00000 1.00000
vt 1.00000 0.00000
vt 0.00000 0.00000
vt 0.00000 1.00000
vt 1.00000 1.00000
vt 1.00000 0.00000
vt 0.00000 0.00000
vt 0.00000 1.00000
vt 1.00000 1.00000
vt 1.00000 0.00000
vt 0.00000 0.00000
vt 0.00000 1.00000
vt 1.00000 1.00000
vt 1.00000 0.00000
vt 0.00000 0.00000
vt 0.00000 1.00000
vt 1.00000 1.00000
vt 1.00000 0.00000
vt 0.00000 0.00000
vt 0.00000 1.00000
vt 1.00000 1.00000
vt 1.00000 0.00000
vt 0.00000 0.00000
vt 0.00000 1.00000
vt 1.00000 1.00000
vt 1.00000 0.00000
vt 0.00000 0.00000
vn 0.90097 0.43388 0.00000
vn 0.90097 0.43388 0.00000
vn 0.90097 0.43388 0.00000
vn 0.90097 0.43388 0.00000
vn 0.22252 0.97493 0.00000
vn 0.22252 0.97493 0.00000
vn 0.22252 0.97493 0.00000
vn 0.22252 0.97493 0.00000
vn -0.62349 0.78183 0.00000
vn -0.62349 0.78183 0.00000
vn -0.62349 0.78183 0.00000
vn -0.62349 0.78183 0.00000
vn -1.00000 0.00000 0.00000
vn -1.00000 0.00000 0.00000
vn -1.00000 0.00000 0.00000
vn -1.00000 0.00000 0.00000
vn -0.62349 -0.78183 0.00000
vn -0.62349 -0.78183 0.00000
vn -0.62349 -0.78183 0.00000
vn -0.62349 -0.78183 0.00000
vn 0.22252 -0.97493 0.00000
vn 0.22252 -0.97493 0.00000
vn 0.22252 -0.97493 0.00000
vn 0.22252 -0.97493 0.00000
vn 0.90097 -0.43388 0.00000
vn 0.90097 -0.43388 0.00000
vn 0.90097 -0.43388 0.00000
vn 0.90097 -0.43388 0.00000
vn 0.90097 0.43388 0.00000
vn 0.90097 0.43388 0.00000
vn 0.90097 0.43388 0.00000
vn 0.90097 0.43388 0.00000
vn 0.22252 0.97493 0.00000
vn 0.22252 0.97493 0.00000
vn 0.22252 0.97493 0.00000
vn 0.22252 0.97493 0.00000
vn -0.62349 0.78183 0.00000
vn -0.62349 0.78183 0.00000
vn -0.62349 0.78183 0.00000
vn -0.62349 0.78183 0.00000
vn -1.00000 0.00000 0.00000
vn -1.00000 0.00000 0.00000
vn -1.00000 0.00000 0.00000
vn -1.00000 0.00000 0.00000
vn -0.62349 -0.78183 0.00000
vn -0.62349 -0.78183 0.00000
vn -0.62349 -0.78183 0.00000
vn -0.62349 -0.78183 0.00000
vn 0.22252 -0.97493 0.00000
vn 0.22252 -0.97493 0.00000
vn 0.22252 -0.97493 0.00000
vn 0.22252 -0.97493 0.00000
vn 0.90097 -0.43388 0.00000
vn 0.90097 -0.43388 0.00000
vn 0.90097 -0.43388 0.00000
vn 0.90097 -0.43388 0.00000
vn 0.90097 0.43388 0.00000
vn 0.90097 0.43388 0.00000
vn 0.90097 0.43388 0.00000
vn 0.90097 0.43388 0.00000
vn 0.22252 0.97493 0.00000
vn 0.22252 0.97493 0.00000
vn 0.22252 0.97493 0.00000
vn 0.22252 0.97493 0.00000
vn -0.62349 0.78183 0.00000
vn -0.62349 0.78183 0.00000
vn -0.62349 0.78183 0.00000
vn -0.62349 0.78183 0.00000
vn -1.00000 0.00000 0.00000
vn -1.00000 0.00000 0.00000
vn -1.00000 0.00000 0.00000
vn -1.00000 0.00000 0.00000
vn -0.62349 -0.78183 0.00000
vn -0.62349 -0.78183 0.00000
vn -0.62349 -0.78183 0.00000
vn -0.62349 -0.78183 0.00000
vn 0.22252 -0.97493 0.00000
vn 0.22252 -0.97493 0.00000
vn 0.22252 -0.97493 0.00000
vn 0.22252 -0.97493 0.00000
vn 0.90097 -0.43388 0.00000
vn 0.90097 -0.43388 0.00000
vn 0.90097 -0.43388 0.00000
vn 0.90097 -0.43388 0.00000
f 1/1/1 2/2/2 3/3/3
f 1/1/1 3/3/3 4/4/4
f 5/5/5 6/6/6 7/7/7
f 5/5/5 7/7/7 8/8/8
f 9/9/9 10/10/10 11/11/11
f 9/9/9 11/11/11 12/12/12
f 13/13/13 14/14/14 15/15/15
f 13/13/13 15/15/15 16/16/16
f 17/17/17 18/18/18 19/19/19
f 17/17/17 19/19/19 20/20/20
f 21/21/21 22/22/22 23/23/23
f 21/21/21 23/23/23 24/24/24
f 25/25/25 26/26/26 27/27/27
f 25/25/25 27/27/27 28/28/28
f 29/29/29 30/30/30 31/31/31
f 29/29/29 31/31/31 32/32/32
f 33/33/33 34/34/34 35/35/35
f 33/33/33 35/35/35 36/36/36
f 37/37/37 38/38/38 39/39/39
f 37/37/37 39/39/39 40/40/40
f 41/41/41 42/42/42 43/43/43
f 41/41/41 43/43/43 44/44/44
f 45/45/45 46/46/46 47/47/47
f 45/45/45 47/47/47 48/48/48
f 49/49/49 50/50/50 51/51/51
f 49/49/49 51/51/51 52/52/52
f 53/53/53 54/54/54 55/55/55
f 53/53/53 55/55/55 56/56/56
f 57/57/57 58/58/58 59/59/59
f 57/57/57 59/59/59 60/60/60
f 61/61/61 62/62/62 63/63/63
f 61/61/61 63/63/63 64/64/64
f 65/65/65 66/66/66 67/67/67
f 65/65/65 67/67/67 68/68/68
f 69/69/69 70/70/70 71/71/71
f 69/69/69 71/71/71 72/72/72
f 73/73/73 74/74/74 75/75/75
f 73/73/73 75/75/75 76/76/76
f 77/77/77 78/78/78 79/79/79
f 77/77/77 79/79/79 80/80/80
f 81/81/81 82/82/82 83/83/83
f 81/81/81 83/83/83 84/84/84
